
<svg xmlns="http://www.w3.org/2000/svg">
<defs>


<symbol id="chevron" viewBox="0 0 24 24" fill="none" xmlns="http://www.w3.org/2000/svg">
<g id="SVGRepo_bgCarrier" stroke-width="0"></g>
<g id="SVGRepo_tracerCarrier" stroke-linecap="round" stroke-linejoin="round"></g>
<g id="SVGRepo_iconCarrier"> <path d="M6 9L12 15L18 9M12 9H12.01" stroke="#efeff3" stroke-width="2" stroke-linecap="round" stroke-linejoin="round">
</path></g>
</symbol>

<symbol id="squares" viewBox="0 0 24 24" fill="none" xmlns="http://www.w3.org/2000/svg"><g id="SVGRepo_bgCarrier" stroke-width="0"></g><g id="SVGRepo_tracerCarrier" stroke-linecap="round" stroke-linejoin="round"></g><g id="SVGRepo_iconCarrier"> <path d="M4 0.5C3.07174 0.5 2.1815 0.868749 1.52513 1.52513C0.868749 2.1815 0.5 3.07174 0.5 4V13C0.5 13.9283 0.868749 14.8185 1.52513 15.4749C2.1815 16.1312 3.07174 16.5 4 16.5H6V9C6 7.34315 7.34315 6 9 6H16.5V4C16.5 3.07174 16.1312 2.1815 15.4749 1.52513C14.8185 0.868749 13.9283 0.5 13 0.5H4Z" fill="#000000"></path> <path d="M8 10.8125C8 9.2592 9.2592 8 10.8125 8H20.1875C21.7408 8 23 9.2592 23 10.8125V20.1875C23 21.7408 21.7408 23 20.1875 23H10.8125C9.2592 23 8 21.7408 8 20.1875V10.8125Z" fill="#000000"></path>
</g>
</symbol>


<symbol id="plus" viewBox="0 0 24 24" fill="none" xmlns="http://www.w3.org/2000/svg"><g id="SVGRepo_bgCarrier" stroke-width="0"></g><g id="SVGRepo_tracerCarrier" stroke-linecap="round" stroke-linejoin="round"></g><g id="SVGRepo_iconCarrier"> <path d="M4 12H20M12 4V20" stroke="#b3b3b7" stroke-width="2" stroke-linecap="round" stroke-linejoin="round"></path> </g>
</symbol>

<symbol id="minus" viewBox="0 0 24 24" fill="none" xmlns="http://www.w3.org/2000/svg"><g id="SVGRepo_bgCarrier" stroke-width="0"></g><g id="SVGRepo_tracerCarrier" stroke-linecap="round" stroke-linejoin="round"></g><g id="SVGRepo_iconCarrier"> <path d="M6 12L18 12" stroke="#b3b3b7" stroke-width="2" stroke-linecap="round" stroke-linejoin="round"></path> </g>
</symbol>

<symbol id="play" viewBox="0 0 24 24" fill="none" xmlns="http://www.w3.org/2000/svg"><g id="SVGRepo_bgCarrier" stroke-width="0"></g><g id="SVGRepo_tracerCarrier" stroke-linecap="round" stroke-linejoin="round"></g><g id="SVGRepo_iconCarrier"> <path d="M16.6582 9.28638C18.098 10.1862 18.8178 10.6361 19.0647 11.2122C19.2803 11.7152 19.2803 12.2847 19.0647 12.7878C18.8178 13.3638 18.098 13.8137 16.6582 14.7136L9.896 18.94C8.29805 19.9387 7.49907 20.4381 6.83973 20.385C6.26501 20.3388 5.73818 20.0469 5.3944 19.584C5 19.053 5 18.1108 5 16.2264V7.77357C5 5.88919 5 4.94701 5.3944 4.41598C5.73818 3.9531 6.26501 3.66111 6.83973 3.6149C7.49907 3.5619 8.29805 4.06126 9.896 5.05998L16.6582 9.28638Z" stroke="#b3b3b7" stroke-width="2" stroke-linejoin="round"></path> </g>
</symbol>

<symbol id="pause" viewBox="0 0 24 24" fill="none" xmlns="http://www.w3.org/2000/svg"><g id="SVGRepo_bgCarrier" stroke-width="0"></g><g id="SVGRepo_tracerCarrier" stroke-linecap="round" stroke-linejoin="round"></g><g id="SVGRepo_iconCarrier"> <path d="M8 5V19M16 5V19" stroke="#b3b3b7" stroke-width="2" stroke-linecap="round" stroke-linejoin="round"></path> </g>
</symbol>


<symbol id="stats" viewBox="-3 0 32 32" version="1.1" xmlns="http://www.w3.org/2000/svg" xmlns:xlink="http://www.w3.org/1999/xlink" xmlns:sketch="http://www.bohemiancoding.com/sketch/ns" fill="#b3b3b7"><g id="SVGRepo_bgCarrier" stroke-width="0"></g><g id="SVGRepo_tracerCarrier" stroke-linecap="round" stroke-linejoin="round"></g><g id="SVGRepo_iconCarrier"> <title>stats</title> <desc>Created with Sketch Beta.</desc> <defs> </defs> <g id="Page-1" stroke="none" stroke-width="1" fill="none" fill-rule="evenodd" sketch:type="MSPage"> <g id="Icon-Set" sketch:type="MSLayerGroup" transform="translate(-312.000000, -671.000000)" fill="#b3b3b7"> <path d="M336,700 C336,700.553 335.553,701 335,701 C334.447,701 334,700.553 334,700 L334,690 C334,689.448 334.447,689 335,689 C335.553,689 336,689.448 336,690 L336,700 L336,700 Z M336,687 L334,687 C332.896,687 332,687.896 332,689 L332,701 C332,702.104 332.896,703 334,703 L336,703 C337.104,703 338,702.104 338,701 L338,689 C338,687.896 337.104,687 336,687 L336,687 Z M316,700 C316,700.553 315.553,701 315,701 C314.447,701 314,700.553 314,700 L314,683 C314,682.448 314.447,682 315,682 C315.553,682 316,682.448 316,683 L316,700 L316,700 Z M316,680 L314,680 C312.896,680 312,680.896 312,682 L312,701 C312,702.104 312.896,703 314,703 L316,703 C317.104,703 318,702.104 318,701 L318,682 C318,680.896 317.104,680 316,680 L316,680 Z M326,700 C326,700.553 325.553,701 325,701 C324.447,701 324,700.553 324,700 L324,674 C324,673.447 324.447,673 325,673 C325.553,673 326,673.447 326,674 L326,700 L326,700 Z M326,671 L324,671 C322.896,671 322,671.896 322,673 L322,701 C322,702.104 322.896,703 324,703 L326,703 C327.104,703 328,702.104 328,701 L328,673 C328,671.896 327.104,671 326,671 L326,671 Z" id="stats" sketch:type="MSShapeGroup"> </path> </g> </g> </g>
</symbol>

<symbol id="speed" viewBox="0 0 24 24" fill="none" xmlns="http://www.w3.org/2000/svg"><g id="SVGRepo_bgCarrier" stroke-width="0"></g><g id="SVGRepo_tracerCarrier" stroke-linecap="round" stroke-linejoin="round"></g><g id="SVGRepo_iconCarrier"> <path d="M4.65511 9.87598C3.74757 10.602 3.2938 10.965 3.12952 11.4036C2.98547 11.7881 2.98547 12.2118 3.12952 12.5963C3.2938 13.0349 3.74757 13.3979 4.65511 14.1239L9.40064 17.9203C10.2328 18.5861 10.6489 18.9189 10.9991 18.9193C11.3036 18.9196 11.5917 18.7812 11.7817 18.5432C12.0002 18.2695 12.0002 17.7366 12.0002 16.6709V7.32894C12.0002 6.26324 12.0002 5.73039 11.7817 5.45671C11.5917 5.2187 11.3036 5.08024 10.9991 5.08057C10.6489 5.08095 10.2328 5.41381 9.40064 6.07955L4.65511 9.87598Z" stroke="#b3b3b7" stroke-width="2" stroke-linejoin="round"></path> <path d="M14.1236 9.50116C13.0559 10.3553 12.5221 10.7824 12.3288 11.2983C12.1594 11.7507 12.1594 12.2492 12.3288 12.7015C12.5221 13.2175 13.0559 13.6446 14.1236 14.4987L18.4006 17.9203C19.2328 18.5861 19.6489 18.9189 19.9991 18.9193C20.3036 18.9196 20.5917 18.7812 20.7817 18.5432C21.0002 18.2695 21.0002 17.7366 21.0002 16.6709V7.32894C21.0002 6.26324 21.0002 5.73039 20.7817 5.45671C20.5917 5.2187 20.3036 5.08024 19.9991 5.08057C19.6489 5.08095 19.2328 5.41381 18.4006 6.07955L14.1236 9.50116Z" stroke="#b3b3b7" stroke-width="2" stroke-linejoin="round"></path> </g>
<title>Speed</title>
</symbol>

<symbol id="clock" viewBox="0 0 24 24" fill="none" xmlns="http://www.w3.org/2000/svg"><g id="SVGRepo_bgCarrier" stroke-width="0"></g><g id="SVGRepo_tracerCarrier" stroke-linecap="round" stroke-linejoin="round"></g><g id="SVGRepo_iconCarrier"> <path d="M5.06152 12C5.55362 8.05369 8.92001 5 12.9996 5C17.4179 5 20.9996 8.58172 20.9996 13C20.9996 17.4183 17.4179 21 12.9996 21H8M13 13V9M11 3H15M3 15H8M5 18H10" stroke="#b3b3b7" stroke-width="2" stroke-linecap="round" stroke-linejoin="round"></path> </g>
</symbol>

<symbol id="gear" viewBox="0 0 24 24" fill="none" xmlns="http://www.w3.org/2000/svg"><g id="SVGRepo_bgCarrier" stroke-width="0"></g><g id="SVGRepo_tracerCarrier" stroke-linecap="round" stroke-linejoin="round"></g><g id="SVGRepo_iconCarrier"> <path d="M15 12C15 13.6569 13.6569 15 12 15C10.3431 15 9 13.6569 9 12C9 10.3431 10.3431 9 12 9C13.6569 9 15 10.3431 15 12Z" stroke="#4c5366" stroke-width="2" stroke-linecap="round" stroke-linejoin="round"></path> <path d="M12.9046 3.06005C12.6988 3 12.4659 3 12 3C11.5341 3 11.3012 3 11.0954 3.06005C10.7942 3.14794 10.5281 3.32808 10.3346 3.57511C10.2024 3.74388 10.1159 3.96016 9.94291 4.39272C9.69419 5.01452 9.00393 5.33471 8.36857 5.123L7.79779 4.93281C7.3929 4.79785 7.19045 4.73036 6.99196 4.7188C6.70039 4.70181 6.4102 4.77032 6.15701 4.9159C5.98465 5.01501 5.83376 5.16591 5.53197 5.4677C5.21122 5.78845 5.05084 5.94882 4.94896 6.13189C4.79927 6.40084 4.73595 6.70934 4.76759 7.01551C4.78912 7.2239 4.87335 7.43449 5.04182 7.85566C5.30565 8.51523 5.05184 9.26878 4.44272 9.63433L4.16521 9.80087C3.74031 10.0558 3.52786 10.1833 3.37354 10.3588C3.23698 10.5141 3.13401 10.696 3.07109 10.893C3 11.1156 3 11.3658 3 11.8663C3 12.4589 3 12.7551 3.09462 13.0088C3.17823 13.2329 3.31422 13.4337 3.49124 13.5946C3.69158 13.7766 3.96395 13.8856 4.50866 14.1035C5.06534 14.3261 5.35196 14.9441 5.16236 15.5129L4.94721 16.1584C4.79819 16.6054 4.72367 16.829 4.7169 17.0486C4.70875 17.3127 4.77049 17.5742 4.89587 17.8067C5.00015 18.0002 5.16678 18.1668 5.5 18.5C5.83323 18.8332 5.99985 18.9998 6.19325 19.1041C6.4258 19.2295 6.68733 19.2913 6.9514 19.2831C7.17102 19.2763 7.39456 19.2018 7.84164 19.0528L8.36862 18.8771C9.00393 18.6654 9.6942 18.9855 9.94291 19.6073C10.1159 20.0398 10.2024 20.2561 10.3346 20.4249C10.5281 20.6719 10.7942 20.8521 11.0954 20.94C11.3012 21 11.5341 21 12 21C12.4659 21 12.6988 21 12.9046 20.94C13.2058 20.8521 13.4719 20.6719 13.6654 20.4249C13.7976 20.2561 13.8841 20.0398 14.0571 19.6073C14.3058 18.9855 14.9961 18.6654 15.6313 18.8773L16.1579 19.0529C16.605 19.2019 16.8286 19.2764 17.0482 19.2832C17.3123 19.2913 17.5738 19.2296 17.8063 19.1042C17.9997 18.9999 18.1664 18.8333 18.4996 18.5001C18.8328 18.1669 18.9994 18.0002 19.1037 17.8068C19.2291 17.5743 19.2908 17.3127 19.2827 17.0487C19.2759 16.8291 19.2014 16.6055 19.0524 16.1584L18.8374 15.5134C18.6477 14.9444 18.9344 14.3262 19.4913 14.1035C20.036 13.8856 20.3084 13.7766 20.5088 13.5946C20.6858 13.4337 20.8218 13.2329 20.9054 13.0088C21 12.7551 21 12.4589 21 11.8663C21 11.3658 21 11.1156 20.9289 10.893C20.866 10.696 20.763 10.5141 20.6265 10.3588C20.4721 10.1833 20.2597 10.0558 19.8348 9.80087L19.5569 9.63416C18.9478 9.26867 18.6939 8.51514 18.9578 7.85558C19.1262 7.43443 19.2105 7.22383 19.232 7.01543C19.2636 6.70926 19.2003 6.40077 19.0506 6.13181C18.9487 5.94875 18.7884 5.78837 18.4676 5.46762C18.1658 5.16584 18.0149 5.01494 17.8426 4.91583C17.5894 4.77024 17.2992 4.70174 17.0076 4.71872C16.8091 4.73029 16.6067 4.79777 16.2018 4.93273L15.6314 5.12287C14.9961 5.33464 14.3058 5.0145 14.0571 4.39272C13.8841 3.96016 13.7976 3.74388 13.6654 3.57511C13.4719 3.32808 13.2058 3.14794 12.9046 3.06005Z" stroke="#4c5366" stroke-width="2" stroke-linecap="round" stroke-linejoin="round"></path> </g>
</symbol>

<symbol id="screen_gear" xmlns="http://www.w3.org/2000/svg" xmlns:xlink="http://www.w3.org/1999/xlink" viewBox="0 0 32 32" xml:space="preserve" fill="none"><g id="SVGRepo_bgCarrier" stroke-width="0"></g><g id="SVGRepo_tracerCarrier" stroke-linecap="round" stroke-linejoin="round"></g><g id="SVGRepo_iconCarrier"> <style type="text/css"> .st0{fill:none;stroke:#b3b3b7;stroke-width:2;stroke-linecap:round;stroke-linejoin:round;stroke-miterlimit:10;} .st1{fill:none;stroke:#b3b3b7;stroke-width:2;stroke-linejoin:round;stroke-miterlimit:10;} </style> <rect x="3" y="4" class="st0" width="26" height="19" stroke="#b3b3b7" stroke-width="2"></rect> <line class="st0" x1="14" y1="20" x2="18" y2="20" stroke="#b3b3b7" stroke-width="2"></line> <polyline class="st0" points="20,26 22,29 10,29 12,26 " stroke="#b3b3b7" stroke-width="2"></polyline> </g>
</symbol>

<symbol id="range" viewBox="0 0 24 24" fill="none" xmlns="http://www.w3.org/2000/svg"><g id="SVGRepo_bgCarrier" stroke-width="0"></g><g id="SVGRepo_tracerCarrier" stroke-linecap="round" stroke-linejoin="round"></g><g id="SVGRepo_iconCarrier"> <path d="M12 5.5C12 6.88071 10.8807 8 9.5 8C8.11929 8 7 6.88071 7 5.5M12 5.5C12 4.11929 10.8807 3 9.5 3C8.11929 3 7 4.11929 7 5.5M12 5.5H21M7 5.5H3M19 12C19 13.3807 17.8807 14.5 16.5 14.5C15.1193 14.5 14 13.3807 14 12M19 12C19 10.6193 17.8807 9.5 16.5 9.5C15.1193 9.5 14 10.6193 14 12M19 12H21M14 12H3M10 18.5C10 19.8807 8.88071 21 7.5 21C6.11929 21 5 19.8807 5 18.5M10 18.5C10 17.1193 8.88071 16 7.5 16C6.11929 16 5 17.1193 5 18.5M10 18.5H21M5 18.5H3" stroke="#b3b3b7" stroke-width="2" stroke-linecap="round" stroke-linejoin="round"></path> </g>
</symbol>

<symbol id="reset" viewBox="0 0 24 24" fill="none" xmlns="http://www.w3.org/2000/svg"><g id="SVGRepo_bgCarrier" stroke-width="0"></g><g id="SVGRepo_tracerCarrier" stroke-linecap="round" stroke-linejoin="round"></g><g id="SVGRepo_iconCarrier"> <path d="M3 3V8M3 8H8M3 8L6 5.29168C7.59227 3.86656 9.69494 3 12 3C16.9706 3 21 7.02944 21 12C21 16.9706 16.9706 21 12 21C7.71683 21 4.13247 18.008 3.22302 14" stroke="#b3b3b7" stroke-width="2" stroke-linecap="round" stroke-linejoin="round"></path> </g>
</symbol>

<symbol id="random" viewBox="0 0 512 512" version="1.1" xmlns="http://www.w3.org/2000/svg" xmlns:xlink="http://www.w3.org/1999/xlink" fill="#000000"><g id="SVGRepo_bgCarrier" stroke-width="0"></g><g id="SVGRepo_tracerCarrier" stroke-linecap="round" stroke-linejoin="round"></g><g id="SVGRepo_iconCarrier"> <title>random</title> <g id="Page-1" stroke="none" stroke-width="1" fill="none" fill-rule="evenodd"> <g id="icon" fill="#b3b3b7" transform="translate(46.976875, 46.976875)"> <path d="M379.689791,38.3564581 L379.689791,379.689791 L38.3564581,379.689791 L38.3564581,38.3564581 L379.689791,38.3564581 Z M337.023125,81.0231247 L81.0231247,81.0231247 L81.0231247,337.023125 L337.023125,337.023125 L337.023125,81.0231247 Z M283.689791,251.689791 C301.362903,251.689791 315.689791,266.016679 315.689791,283.689791 C315.689791,301.362903 301.362903,315.689791 283.689791,315.689791 C266.016679,315.689791 251.689791,301.362903 251.689791,283.689791 C251.689791,266.016679 266.016679,251.689791 283.689791,251.689791 Z M209.023125,177.023125 C226.696237,177.023125 241.023125,191.350013 241.023125,209.023125 C241.023125,226.696237 226.696237,241.023125 209.023125,241.023125 C191.350013,241.023125 177.023125,226.696237 177.023125,209.023125 C177.023125,191.350013 191.350013,177.023125 209.023125,177.023125 Z M134.356458,102.356458 C152.02957,102.356458 166.356458,116.683346 166.356458,134.356458 C166.356458,152.02957 152.02957,166.356458 134.356458,166.356458 C116.683346,166.356458 102.356458,152.02957 102.356458,134.356458 C102.356458,116.683346 116.683346,102.356458 134.356458,102.356458 Z" id="Combined-Shape" transform="translate(209.023125, 209.023125) rotate(-345.000000) translate(-209.023125, -209.023125) "> </path> </g> </g> </g>
</symbol>

<symbol id="queue" viewBox="0 0 24 24" fill="none" xmlns="http://www.w3.org/2000/svg"><g id="SVGRepo_bgCarrier" stroke-width="0"></g><g id="SVGRepo_tracerCarrier" stroke-linecap="round" stroke-linejoin="round"></g><g id="SVGRepo_iconCarrier"> <path d="M12 18.25C11.4477 18.25 11 17.8023 11 17.25V16H9.75C9.19772 16 8.75 15.5523 8.75 15C8.75 14.4477 9.19772 14 9.75 14H11V12.75C11 12.1977 11.4477 11.75 12 11.75C12.5523 11.75 13 12.1977 13 12.75V14H14.25C14.8023 14 15.25 14.4477 15.25 15C15.25 15.5523 14.8023 16 14.25 16H13V17.25C13 17.8023 12.5523 18.25 12 18.25Z" fill="#b3b3b7"></path> <path fill-rule="evenodd" clip-rule="evenodd" d="M7 5V4C7 2.89543 7.89543 2 9 2H15C16.1046 2 17 2.89543 17 4V5C18.1046 5 19 5.89543 19 7V8C19 8.05667 18.9976 8.11278 18.993 8.16825C20.1619 8.57811 21 9.69117 21 11V19C21 20.6569 19.6569 22 18 22H6C4.34315 22 3 20.6569 3 19V11C3 9.69118 3.83814 8.57811 5.00698 8.16825C5.00236 8.11278 5 8.05666 5 8V7C5 5.89543 5.89543 5 7 5ZM9 4H15V5H9V4ZM17 7V8H7V7H17ZM6 10H18C18.5523 10 19 10.4477 19 11V19C19 19.5523 18.5523 20 18 20H6C5.44772 20 5 19.5523 5 19V11C5 10.4477 5.44772 10 6 10Z" fill="#b3b3b7"></path> </g>
</symbol>

<symbol id="baby" fill="#b3b3b7" viewBox="0 0 256 256" xmlns="http://www.w3.org/2000/svg"><g id="SVGRepo_bgCarrier" stroke-width="0"></g><g id="SVGRepo_tracerCarrier" stroke-linecap="round" stroke-linejoin="round"></g><g id="SVGRepo_iconCarrier"> <path d="M131.92139,24.0813C120.32031,40.37354,120.002,55.87939,120,56.044A8.00006,8.00006,0,0,0,136,56a8,8,0,0,1,16,0,24,24,0,0,1-48,0c0-.72876.125-14.4248,8.57715-30.85474a104.06072,104.06072,0,1,0,19.34424-1.064ZM80,128a12,12,0,1,1,12,12A12,12,0,0,1,80,128Zm78.9668,46.665a56.03047,56.03047,0,0,1-61.93213.001,7.99982,7.99982,0,1,1,8.85742-13.32422,40.03347,40.03347,0,0,0,44.21777-.001A7.99969,7.99969,0,1,1,158.9668,174.665ZM164,140a12,12,0,1,1,12-12A12,12,0,0,1,164,140Z"></path> </g>
</symbol>

<symbol id="grid_square" viewBox="0 0 24 24" fill="none" xmlns="http://www.w3.org/2000/svg"><g id="SVGRepo_bgCarrier" stroke-width="0"></g><g id="SVGRepo_tracerCarrier" stroke-linecap="round" stroke-linejoin="round"></g><g id="SVGRepo_iconCarrier"> <path d="M5.25 2H10.25C10.6642 2 11 2.33579 11 2.75C11 3.16421 10.6642 3.5 10.25 3.5H5.25C4.2835 3.5 3.5 4.2835 3.5 5.25V8.37587C2.91837 8.63901 2.40656 9.02928 2 9.51124V5.25C2 3.45507 3.45507 2 5.25 2Z" fill="#b3b3b7"></path> <path d="M15.6241 20.5C15.361 21.0816 14.9707 21.5934 14.4888 22H18.75C20.5449 22 22 20.5449 22 18.75V13.75C22 13.3358 21.6642 13 21.25 13C20.8358 13 20.5 13.3358 20.5 13.75V18.75C20.5 19.7165 19.7165 20.5 18.75 20.5H15.6241Z" fill="#b3b3b7"></path> <path d="M21.25 11C21.6642 11 22 10.6642 22 10.25V5.25C22 3.45507 20.5449 2 18.75 2H13.75C13.3358 2 13 2.33579 13 2.75C13 3.16421 13.3358 3.5 13.75 3.5H18.75C19.7165 3.5 20.5 4.2835 20.5 5.25V10.25C20.5 10.6642 20.8358 11 21.25 11Z" fill="#b3b3b7"></path> <path d="M5.25 9C3.45507 9 2 10.4551 2 12.25V18.75C2 20.5449 3.45507 22 5.25 22H11.75C13.5449 22 15 20.5449 15 18.75V12.25C15 10.4551 13.5449 9 11.75 9H5.25ZM3.5 12.25C3.5 11.2835 4.2835 10.5 5.25 10.5H6V13H3.5V12.25ZM6 14.5V17H3.5V14.5H6ZM7.5 17V14.5H9.5V17H7.5ZM11 17V14.5H13.5V17H11ZM7.5 18.5H9.5V20.5H7.5V18.5ZM11 18.5H13.5V18.75C13.5 19.7165 12.7165 20.5 11.75 20.5H11V18.5ZM11 10.5H11.75C12.7165 10.5 13.5 11.2835 13.5 12.25V13H11V10.5ZM9.5 13H7.5V10.5H9.5V13ZM6 18.5V20.5H5.25C4.2835 20.5 3.5 19.7165 3.5 18.75V18.5H6Z" fill="#b3b3b7"></path> </g>
</symbol>

<symbol id="two_by_two_squares" fill="#b3b3b7" viewBox="0 0 56 56" xmlns="http://www.w3.org/2000/svg"><g id="SVGRepo_bgCarrier" stroke-width="0"></g><g id="SVGRepo_tracerCarrier" stroke-linecap="round" stroke-linejoin="round"></g><g id="SVGRepo_iconCarrier"><path d="M 10.9023 26.0664 L 21.5898 26.0664 C 24.5663 26.0664 26.0663 24.5664 26.0663 21.4727 L 26.0663 10.9961 C 26.0663 7.9023 24.5663 6.4258 21.5898 6.4258 L 10.9023 6.4258 C 7.9257 6.4258 6.4257 7.9023 6.4257 10.9961 L 6.4257 21.4727 C 6.4257 24.5664 7.9257 26.0664 10.9023 26.0664 Z M 34.4335 26.0664 L 45.0976 26.0664 C 48.0976 26.0664 49.5743 24.5664 49.5743 21.4727 L 49.5743 10.9961 C 49.5743 7.9023 48.0976 6.4258 45.0976 6.4258 L 34.4335 6.4258 C 31.4570 6.4258 29.9570 7.9023 29.9570 10.9961 L 29.9570 21.4727 C 29.9570 24.5664 31.4570 26.0664 34.4335 26.0664 Z M 10.9492 22.7617 C 10.1288 22.7617 9.7304 22.3398 9.7304 21.4727 L 9.7304 10.9961 C 9.7304 10.1523 10.1288 9.7305 10.9492 9.7305 L 21.5195 9.7305 C 22.3398 9.7305 22.7617 10.1523 22.7617 10.9961 L 22.7617 21.4727 C 22.7617 22.3398 22.3398 22.7617 21.5195 22.7617 Z M 34.4804 22.7617 C 33.6601 22.7617 33.2617 22.3398 33.2617 21.4727 L 33.2617 10.9961 C 33.2617 10.1523 33.6601 9.7305 34.4804 9.7305 L 45.0742 9.7305 C 45.8710 9.7305 46.2695 10.1523 46.2695 10.9961 L 46.2695 21.4727 C 46.2695 22.3398 45.8710 22.7617 45.0742 22.7617 Z M 10.9023 49.5742 L 21.5898 49.5742 C 24.5663 49.5742 26.0663 48.0977 26.0663 45.0039 L 26.0663 34.5039 C 26.0663 31.4336 24.5663 29.9336 21.5898 29.9336 L 10.9023 29.9336 C 7.9257 29.9336 6.4257 31.4336 6.4257 34.5039 L 6.4257 45.0039 C 6.4257 48.0977 7.9257 49.5742 10.9023 49.5742 Z M 34.4335 49.5742 L 45.0976 49.5742 C 48.0976 49.5742 49.5743 48.0977 49.5743 45.0039 L 49.5743 34.5039 C 49.5743 31.4336 48.0976 29.9336 45.0976 29.9336 L 34.4335 29.9336 C 31.4570 29.9336 29.9570 31.4336 29.9570 34.5039 L 29.9570 45.0039 C 29.9570 48.0977 31.4570 49.5742 34.4335 49.5742 Z M 10.9492 46.2695 C 10.1288 46.2695 9.7304 45.8477 9.7304 45.0039 L 9.7304 34.5274 C 9.7304 33.6602 10.1288 33.2383 10.9492 33.2383 L 21.5195 33.2383 C 22.3398 33.2383 22.7617 33.6602 22.7617 34.5274 L 22.7617 45.0039 C 22.7617 45.8477 22.3398 46.2695 21.5195 46.2695 Z M 34.4804 46.2695 C 33.6601 46.2695 33.2617 45.8477 33.2617 45.0039 L 33.2617 34.5274 C 33.2617 33.6602 33.6601 33.2383 34.4804 33.2383 L 45.0742 33.2383 C 45.8710 33.2383 46.2695 33.6602 46.2695 34.5274 L 46.2695 45.0039 C 46.2695 45.8477 45.8710 46.2695 45.0742 46.2695 Z"></path></g>
</symbol>

<symbol id="two_by_three_squares" fill="#b3b3b7" viewBox="0 0 56 56" xmlns="http://www.w3.org/2000/svg"><g id="SVGRepo_bgCarrier" stroke-width="0"></g><g id="SVGRepo_tracerCarrier" stroke-linecap="round" stroke-linejoin="round"></g><g id="SVGRepo_iconCarrier"><path d="M 43.2646 27.6955 L 52.2405 27.6955 C 54.7402 27.6955 56.0000 26.4357 56.0000 23.8375 L 56.0000 15.0389 C 56.0000 12.4406 54.7402 11.2005 52.2405 11.2005 L 43.2646 11.2005 C 40.7648 11.2005 39.5051 12.4406 39.5051 15.0389 L 39.5051 23.8375 C 39.5051 26.4357 40.7648 27.6955 43.2646 27.6955 Z M 3.7596 27.6955 L 12.7353 27.6955 C 15.2351 27.6955 16.4949 26.4357 16.4949 23.8375 L 16.4949 15.0389 C 16.4949 12.4406 15.2351 11.2005 12.7353 11.2005 L 3.7596 11.2005 C 1.2598 11.2005 0 12.4406 0 15.0389 L 0 23.8375 C 0 26.4357 1.2598 27.6955 3.7596 27.6955 Z M 23.5220 27.6955 L 32.4781 27.6955 C 34.9976 27.6955 36.2378 26.4357 36.2378 23.8375 L 36.2378 15.0389 C 36.2378 12.4406 34.9976 11.2005 32.4781 11.2005 L 23.5220 11.2005 C 21.0222 11.2005 19.7624 12.4406 19.7624 15.0389 L 19.7624 23.8375 C 19.7624 26.4357 21.0222 27.6955 23.5220 27.6955 Z M 3.7989 24.9201 C 3.1100 24.9201 2.7754 24.5658 2.7754 23.8375 L 2.7754 15.0389 C 2.7754 14.3302 3.1100 13.9759 3.7989 13.9759 L 12.6763 13.9759 C 13.3652 13.9759 13.7195 14.3302 13.7195 15.0389 L 13.7195 23.8375 C 13.7195 24.5658 13.3652 24.9201 12.6763 24.9201 Z M 23.5613 24.9201 C 22.8725 24.9201 22.5378 24.5658 22.5378 23.8375 L 22.5378 15.0389 C 22.5378 14.3302 22.8725 13.9759 23.5613 13.9759 L 32.4584 13.9759 C 33.1276 13.9759 33.4623 14.3302 33.4623 15.0389 L 33.4623 23.8375 C 33.4623 24.5658 33.1276 24.9201 32.4584 24.9201 Z M 43.3041 24.9201 C 42.6151 24.9201 42.2806 24.5658 42.2806 23.8375 L 42.2806 15.0389 C 42.2806 14.3302 42.6151 13.9759 43.3041 13.9759 L 52.1816 13.9759 C 52.8899 13.9759 53.2245 14.3302 53.2245 15.0389 L 53.2245 23.8375 C 53.2245 24.5658 52.8899 24.9201 52.1816 24.9201 Z M 3.7596 47.4382 L 12.7353 47.4382 C 15.2351 47.4382 16.4949 46.1981 16.4949 43.5999 L 16.4949 34.7816 C 16.4949 32.2031 15.2351 30.9433 12.7353 30.9433 L 3.7596 30.9433 C 1.2598 30.9433 0 32.2031 0 34.7816 L 0 43.5999 C 0 46.1981 1.2598 47.4382 3.7596 47.4382 Z M 23.5220 47.4382 L 32.4781 47.4382 C 34.9976 47.4382 36.2378 46.1981 36.2378 43.5999 L 36.2378 34.7816 C 36.2378 32.2031 34.9976 30.9433 32.4781 30.9433 L 23.5220 30.9433 C 21.0222 30.9433 19.7624 32.2031 19.7624 34.7816 L 19.7624 43.5999 C 19.7624 46.1981 21.0222 47.4382 23.5220 47.4382 Z M 43.2646 47.4382 L 52.2405 47.4382 C 54.7402 47.4382 56.0000 46.1981 56.0000 43.5999 L 56.0000 34.7816 C 56.0000 32.2031 54.7402 30.9433 52.2405 30.9433 L 43.2646 30.9433 C 40.7648 30.9433 39.5051 32.2031 39.5051 34.7816 L 39.5051 43.5999 C 39.5051 46.1981 40.7648 47.4382 43.2646 47.4382 Z M 3.7989 44.6628 C 3.1100 44.6628 2.7754 44.3085 2.7754 43.5999 L 2.7754 34.8013 C 2.7754 34.0730 3.1100 33.7187 3.7989 33.7187 L 12.6763 33.7187 C 13.3652 33.7187 13.7195 34.0730 13.7195 34.8013 L 13.7195 43.5999 C 13.7195 44.3085 13.3652 44.6628 12.6763 44.6628 Z M 23.5613 44.6628 C 22.8725 44.6628 22.5378 44.3085 22.5378 43.5999 L 22.5378 34.8013 C 22.5378 34.0730 22.8725 33.7187 23.5613 33.7187 L 32.4584 33.7187 C 33.1276 33.7187 33.4623 34.0730 33.4623 34.8013 L 33.4623 43.5999 C 33.4623 44.3085 33.1276 44.6628 32.4584 44.6628 Z M 43.3041 44.6628 C 42.6151 44.6628 42.2806 44.3085 42.2806 43.5999 L 42.2806 34.8013 C 42.2806 34.0730 42.6151 33.7187 43.3041 33.7187 L 52.1816 33.7187 C 52.8899 33.7187 53.2245 34.0730 53.2245 34.8013 L 53.2245 43.5999 C 53.2245 44.3085 52.8899 44.6628 52.1816 44.6628 Z"></path></g>
</symbol>

<symbol id="pin" viewBox="0 0 24 24" fill="none" xmlns="http://www.w3.org/2000/svg"><g id="SVGRepo_bgCarrier" stroke-width="0"></g><g id="SVGRepo_tracerCarrier" stroke-linecap="round" stroke-linejoin="round"></g><g id="SVGRepo_iconCarrier"> <path fill-rule="evenodd" clip-rule="evenodd" d="M17.1218 1.87023C15.7573 0.505682 13.4779 0.76575 12.4558 2.40261L9.61062 6.95916C9.61033 6.95965 9.60913 6.96167 9.6038 6.96549C9.59728 6.97016 9.58336 6.97822 9.56001 6.9848C9.50899 6.99916 9.44234 6.99805 9.38281 6.97599C8.41173 6.61599 6.74483 6.22052 5.01389 6.87251C4.08132 7.22378 3.61596 8.03222 3.56525 8.85243C3.51687 9.63502 3.83293 10.4395 4.41425 11.0208L7.94975 14.5563L1.26973 21.2363C0.879206 21.6269 0.879206 22.26 1.26973 22.6506C1.66025 23.0411 2.29342 23.0411 2.68394 22.6506L9.36397 15.9705L12.8995 19.5061C13.4808 20.0874 14.2853 20.4035 15.0679 20.3551C15.8881 20.3044 16.6966 19.839 17.0478 18.9065C17.6998 17.1755 17.3043 15.5086 16.9444 14.5375C16.9223 14.478 16.9212 14.4114 16.9355 14.3603C16.9421 14.337 16.9502 14.3231 16.9549 14.3165C16.9587 14.3112 16.9606 14.31 16.9611 14.3098L21.5177 11.4645C23.1546 10.4424 23.4147 8.16307 22.0501 6.79853L17.1218 1.87023ZM14.1523 3.46191C14.493 2.91629 15.2528 2.8296 15.7076 3.28445L20.6359 8.21274C21.0907 8.66759 21.0041 9.42737 20.4584 9.76806L15.9019 12.6133C14.9572 13.2032 14.7469 14.3637 15.0691 15.2327C15.3549 16.0037 15.5829 17.1217 15.1762 18.2015C15.1484 18.2752 15.1175 18.3018 15.0985 18.3149C15.0743 18.3316 15.0266 18.3538 14.9445 18.3589C14.767 18.3699 14.5135 18.2916 14.3137 18.0919L5.82846 9.6066C5.62872 9.40686 5.55046 9.15333 5.56144 8.97583C5.56651 8.8937 5.58877 8.84605 5.60548 8.82181C5.61855 8.80285 5.64516 8.7719 5.71886 8.74414C6.79869 8.33741 7.91661 8.56545 8.68762 8.85128C9.55668 9.17345 10.7171 8.96318 11.3071 8.01845L14.1523 3.46191Z" fill="#b3b3b7"></path> </g>
</symbol>

<symbol id="arrowUp" viewBox="0 0 24 24" fill="none" xmlns="http://www.w3.org/2000/svg"><g id="SVGRepo_bgCarrier" stroke-width="0"></g><g id="SVGRepo_tracerCarrier" stroke-linecap="round" stroke-linejoin="round"></g><g id="SVGRepo_iconCarrier"> <path d="M15 11L12 8M12 8L9 11M12 8V16M21 12C21 16.9706 16.9706 21 12 21C7.02944 21 3 16.9706 3 12C3 7.02944 7.02944 3 12 3C16.9706 3 21 7.02944 21 12Z" stroke="#059669" stroke-width="2" stroke-linecap="round" stroke-linejoin="round"></path> </g>
</symbol>


<symbol id="arrowDown" viewBox="0 0 24 24" fill="none" xmlns="http://www.w3.org/2000/svg"><g id="SVGRepo_bgCarrier" stroke-width="0"></g><g id="SVGRepo_tracerCarrier" stroke-linecap="round" stroke-linejoin="round"></g><g id="SVGRepo_iconCarrier"> <path d="M9 13L12 16M12 16L15 13M12 16V8M21 12C21 16.9706 16.9706 21 12 21C7.02944 21 3 16.9706 3 12C3 7.02944 7.02944 3 12 3C16.9706 3 21 7.02944 21 12Z" stroke="#DC2626" stroke-width="2" stroke-linecap="round" stroke-linejoin="round"></path> </g>
</symbol>

<symbol id="population" viewBox="0 0 24 24" fill="none" xmlns="http://www.w3.org/2000/svg"><g id="SVGRepo_bgCarrier" stroke-width="0"></g><g id="SVGRepo_tracerCarrier" stroke-linecap="round" stroke-linejoin="round"></g><g id="SVGRepo_iconCarrier"> <path d="M16.719 19.7519L16.0785 14.6279C15.8908 13.1266 14.6146 12 13.1017 12H12H10.8983C9.38538 12 8.10917 13.1266 7.92151 14.6279L7.28101 19.7519C7.1318 20.9456 8.06257 22 9.26556 22H12H14.7344C15.9374 22 16.8682 20.9456 16.719 19.7519Z" stroke="#b3b3b7" stroke-width="2" stroke-linecap="round" stroke-linejoin="round"></path> <circle cx="12" cy="5" r="3" stroke="#b3b3b7" stroke-width="2"></circle> <circle cx="4" cy="9" r="2" stroke="#b3b3b7" stroke-width="2"></circle> <circle cx="20" cy="9" r="2" stroke="#b3b3b7" stroke-width="2"></circle> <path d="M4 14H3.69425C2.71658 14 1.8822 14.7068 1.72147 15.6712L1.38813 17.6712C1.18496 18.8903 2.12504 20 3.36092 20H7" stroke="#b3b3b7" stroke-width="2" stroke-linecap="round" stroke-linejoin="round"></path> <path d="M20 14H20.3057C21.2834 14 22.1178 14.7068 22.2785 15.6712L22.6119 17.6712C22.815 18.8903 21.8751 20 20.6392 20C19.4775 20 18.0952 20 17 20" stroke="#b3b3b7" stroke-width="2" stroke-linecap="round" stroke-linejoin="round"></path> </g>
</symbol>

<symbol id="heart" viewBox="0 0 24 24" fill="none" xmlns="http://www.w3.org/2000/svg"><g id="SVGRepo_bgCarrier" stroke-width="0"></g><g id="SVGRepo_tracerCarrier" stroke-linecap="round" stroke-linejoin="round"></g><g id="SVGRepo_iconCarrier"> <path fill-rule="evenodd" clip-rule="evenodd" d="M12 6.00019C10.2006 3.90317 7.19377 3.2551 4.93923 5.17534C2.68468 7.09558 2.36727 10.3061 4.13778 12.5772C5.60984 14.4654 10.0648 18.4479 11.5249 19.7369C11.6882 19.8811 11.7699 19.9532 11.8652 19.9815C11.9483 20.0062 12.0393 20.0062 12.1225 19.9815C12.2178 19.9532 12.2994 19.8811 12.4628 19.7369C13.9229 18.4479 18.3778 14.4654 19.8499 12.5772C21.6204 10.3061 21.3417 7.07538 19.0484 5.17534C16.7551 3.2753 13.7994 3.90317 12 6.00019Z" stroke="#b3b3b7" stroke-width="2" stroke-linecap="round" stroke-linejoin="round"></path> </g>
</symbol>

<symbol id="skull" fill="#b3b3b7" viewBox="0 0 32 32" version="1.1" xmlns="http://www.w3.org/2000/svg"><g id="SVGRepo_bgCarrier" stroke-width="0"></g><g id="SVGRepo_tracerCarrier" stroke-linecap="round" stroke-linejoin="round"></g><g id="SVGRepo_iconCarrier"> <title>skull</title> <path d="M16 1c-7.5 0-15 3.75-15 9.375 0 3.75 2.813 5.625 2.813 9.375 0 2.813-0.937 2.813-0.937 4.688 0 0.937 3.001 2 5.625 2.813v3.75h15.001v-3.75c0 0 5.66-1.747 5.625-2.813-0.058-1.747-0.937-1.875-0.937-4.688 0-1.875 2.852-5.714 2.813-9.375-0.002-5.625-7.501-9.375-15.001-9.375zM10.374 12.249c2.071 0 3.75 1.679 3.75 3.75s-1.679 3.75-3.75 3.75-3.75-1.679-3.75-3.75c0-2.071 1.679-3.75 3.75-3.75zM21.625 12.249c2.071 0 3.75 1.679 3.75 3.75s-1.679 3.75-3.75 3.75-3.75-1.679-3.75-3.75c0-2.071 1.679-3.75 3.75-3.75zM16 18.812c0.937 0 2.813 3.75 2.813 4.688 0 1.875 0 1.875-0.937 1.875h-3.75c-0.937 0-0.937 0-0.937-1.875-0.001-0.938 1.874-4.688 2.812-4.688z"></path> </g>
</symbol>

<symbol id="shuffle" viewBox="0 0 24 24" fill="none" xmlns="http://www.w3.org/2000/svg"><g id="SVGRepo_bgCarrier" stroke-width="0"></g><g id="SVGRepo_tracerCarrier" stroke-linecap="round" stroke-linejoin="round"></g><g id="SVGRepo_iconCarrier"> <path d="M18 4L21 7M21 7L18 10M21 7H17C16.0707 7 15.606 7 15.2196 7.07686C13.6329 7.39249 12.3925 8.63288 12.0769 10.2196C12 10.606 12 11.0707 12 12C12 12.9293 12 13.394 11.9231 13.7804C11.6075 15.3671 10.3671 16.6075 8.78036 16.9231C8.39397 17 7.92931 17 7 17H3M18 20L21 17M21 17L18 14M21 17H17C16.0707 17 15.606 17 15.2196 16.9231C15.1457 16.9084 15.0724 16.8917 15 16.873M3 7H7C7.92931 7 8.39397 7 8.78036 7.07686C8.85435 7.09158 8.92758 7.1083 9 7.12698" stroke="#b3b3b7" stroke-width="2" stroke-linecap="round" stroke-linejoin="round"></path> </g>
</symbol>

<symbol id="caret" viewBox="0 0 16 16" xmlns="http://www.w3.org/2000/svg" fill="none" stroke="#4c5366" stroke-width="0" stroke-linecap="round" stroke-linejoin="round" class="bi bi-caret-left-fill">
  <g id="SVGRepo_bgCarrier" stroke-width="0"></g>
  <g id="SVGRepo_tracerCarrier" stroke-linecap="round" stroke-linejoin="round"></g>
  <g id="SVGRepo_iconCarrier">
    <path d="m3.86 8.753 5.482 4.796c.646.566 1.658.106 1.658-.753V3.204a1 1 0 0 0-1.659-.753l-5.48 4.796a1 1 0 0 0 0 1.506z" fill="#1d1f25" />
  </g>
</symbol>

<symbol id="eye_open" viewBox="0 0 24 24" fill="none" xmlns="http://www.w3.org/2000/svg"><g id="SVGRepo_bgCarrier" stroke-width="0"></g><g id="SVGRepo_tracerCarrier" stroke-linecap="round" stroke-linejoin="round"></g><g id="SVGRepo_iconCarrier"> <path d="M12 5C5.63636 5 2 12 2 12C2 12 5.63636 19 12 19C18.3636 19 22 12 22 12C22 12 18.3636 5 12 5Z" stroke="#b3b3b7" stroke-width="1.5" stroke-linecap="round" stroke-linejoin="round"></path> <path d="M12 15C13.6569 15 15 13.6569 15 12C15 10.3431 13.6569 9 12 9C10.3431 9 9 10.3431 9 12C9 13.6569 10.3431 15 12 15Z" stroke="#b3b3b7" stroke-width="1.5" stroke-linecap="round" stroke-linejoin="round"></path> </g>
</symbol>

<symbol id="eye_closed" viewBox="0 0 24 24" fill="none" xmlns="http://www.w3.org/2000/svg"><g id="SVGRepo_bgCarrier" stroke-width="0"></g><g id="SVGRepo_tracerCarrier" stroke-linecap="round" stroke-linejoin="round"></g><g id="SVGRepo_iconCarrier"> <path d="M20 14.8335C21.3082 13.3317 22 12 22 12C22 12 18.3636 5 12 5C11.6588 5 11.3254 5.02013 11 5.05822C10.6578 5.09828 10.3244 5.15822 10 5.23552M12 9C12.3506 9 12.6872 9.06015 13 9.17071C13.8524 9.47199 14.528 10.1476 14.8293 11C14.9398 11.3128 15 11.6494 15 12M3 3L21 21M12 15C11.6494 15 11.3128 14.9398 11 14.8293C10.1476 14.528 9.47198 13.8524 9.1707 13C9.11386 12.8392 9.07034 12.6721 9.04147 12.5M4.14701 9C3.83877 9.34451 3.56234 9.68241 3.31864 10C2.45286 11.1282 2 12 2 12C2 12 5.63636 19 12 19C12.3412 19 12.6746 18.9799 13 18.9418" stroke="#b3b3b7" stroke-width="1.5" stroke-linecap="round" stroke-linejoin="round"></path> </g>
</symbol>

<symbol id="hare" fill="#b3b3b7" viewBox="0 0 56 56" xmlns="http://www.w3.org/2000/svg"><g id="SVGRepo_bgCarrier" stroke-width="0"></g><g id="SVGRepo_tracerCarrier" stroke-linecap="round" stroke-linejoin="round"></g><g id="SVGRepo_iconCarrier"><path d="M 29.3459 49.1765 C 30.6543 49.1765 31.7945 48.5597 34.2618 48.5597 C 36.7292 48.5597 37.4018 49.1765 39.2335 49.1765 C 42.0001 49.1765 43.4582 48.0176 43.4582 46.0924 C 43.4582 42.8027 39.8694 40.5971 34.2431 40.5971 C 31.4767 40.5971 30.2244 40.8587 28.6730 41.2513 L 26.6542 36.6531 C 24.6542 32.2419 21.4767 29.3634 16.9533 29.3634 L 14.7477 29.3634 C 14.0187 29.3634 13.5327 29.0456 13.5327 28.3353 C 13.5327 27.1765 15.0841 26.8961 16.7851 26.8961 C 22.2430 26.8961 26.2991 29.9054 28.7664 35.9615 L 30.0374 39.0830 C 31.3085 38.8213 32.6730 38.6905 34.0562 38.6905 C 35.1590 38.6905 36.1684 38.7653 37.2338 38.9148 C 38.3554 38.0737 39.6638 37.1952 41.5514 36.3727 C 43.6450 37.7933 46.0188 38.7092 48.5234 38.7092 C 53.6825 38.7092 56.0000 37.5877 56.0000 32.7092 C 56.0000 26.8213 51.7382 22.4101 46.0750 22.4288 L 41.0469 15.7559 C 38.2245 12.0923 34.8786 10.3353 31.5701 10.3353 C 28.8412 10.3353 24.7851 11.9054 24.7851 14.1110 C 24.7851 15.6064 27.8131 17.6998 30.1496 19.1391 L 40.9160 25.7185 C 40.0749 26.5223 39.3086 26.9522 38.3925 26.9522 C 36.9348 26.9522 35.4392 26.0737 33.1777 24.7653 C 27.4019 21.4382 22.9720 18.3167 16.9907 18.3167 C 10.7664 18.3167 6.0374 21.8867 3.5140 28.8400 C 1.5140 28.8400 0 30.1485 0 32.0737 C 0 34.2419 1.7196 35.6064 4.0748 35.6064 C 6.8038 39.4195 11.2711 40.9522 16.5608 40.9522 C 16.8412 40.9522 17.1215 40.9335 17.4019 40.9335 L 24.9720 47.2139 C 26.8412 48.9148 27.9253 49.1765 29.3459 49.1765 Z M 48.0936 31.8120 C 47.2525 31.8120 46.5796 31.1017 46.5796 30.2793 C 46.5796 29.4382 47.2713 28.6905 48.1123 28.6905 C 48.9721 28.6905 49.6263 29.3634 49.6263 30.2045 C 49.6263 31.0456 48.9346 31.8120 48.0936 31.8120 Z M 15.8318 50.6531 C 19.4393 50.6531 21.6262 49.9616 23.4206 48.7279 L 17.6449 43.9055 C 17.3832 43.9242 17.0655 43.9616 16.6729 43.9616 C 15.7383 43.9616 14.3552 43.6812 12.7103 43.6812 C 10.6168 43.6812 9.3271 44.8027 9.3271 46.4849 C 9.3271 48.9896 11.8692 50.6531 15.8318 50.6531 Z"></path></g>
</symbol>

<symbol id="snail" viewBox="0 0 512 512" xmlns="http://www.w3.org/2000/svg" fill="#b3b3b7"><g id="SVGRepo_bgCarrier" stroke-width="0"></g><g id="SVGRepo_tracerCarrier" stroke-linecap="round" stroke-linejoin="round"></g><g id="SVGRepo_iconCarrier"><path fill="#b3b3b7" d="M425.5 74.313c-8.895 0-16.35 6.21-18.25 14.53-8.593 3.7-15.195 10.617-19.03 18.813-5.254 11.223-6.848 24.648-7.158 39.313-.525 24.904 2.99 53.73 4.532 79.03-1.782 14.666-4.867 28.518-9.063 41.406 2.84 17.934 3.39 36.487.94 55.188-5.017 38.286-36.52 61.134-70.22 67.937-31.048 6.27-65.312.42-87.656-19.405-34.752 22.61-76.646 28.578-112.406 16.594-42.048 16.248-74.53 38.826-87.626 61.436H341.25c103.105 0 137.952-107.888 111.406-225.53-.018.023-.044.038-.062.06-5.71-40.853.98-70.45 14.906-88.905 1.956.695 4.056 1.095 6.25 1.095 10.333 0 18.688-8.386 18.688-18.72 0-10.332-8.355-18.718-18.688-18.718-10.333 0-18.72 8.386-18.72 18.72 0 1.017.095 1.994.25 2.968-21.242 25.165-28.854 65.708-19.25 117.906-10.296 4.836-21.152 2.878-31.436-6.75-1.286-28.002-5.364-59.27-4.844-83.905.283-13.405 2.07-24.72 5.375-31.78 2.1-4.49 4.222-7.344 7.47-9.032 3.355 3.196 7.904 5.187 12.905 5.187 10.333 0 18.688-8.386 18.688-18.72 0-10.332-8.355-18.718-18.688-18.718zM193.344 106.25c-2.196-.01-4.398.036-6.594.125-35.143 1.42-70.142 15.475-99.063 41.25-56.73 50.558-59.43 144.59-9.187 201.125 38.648 38.3 106.856 34.79 151.5-9.844 37.712-37.61 40.61-94.977 8.78-127-22.1-22.23-60.996-24.817-85.843 1.188-5.534 5.79-8.98 16.02-8.906 26.906.076 10.887 3.653 22.003 9.532 29.063 3.593 4.313 10.625 8.476 18.5 10.468 4.687 1.187 9.596 1.58 14.094 1.25 13.195-.228 26.156-9.01 26.156-26.624 0-15.72-10.332-24.428-21.937-26.28 7.773-.697 14.783.618 20.594 3.81 8.51 4.678 13.69 12.944 15.468 21.533 3.52 16.995-5.478 37.125-25.407 43.343l.032.062c-.162.06-.337.067-.5.125-.046.014-.078.05-.125.063-10.572 3.753-22.202 3.567-32.968.843-10.977-2.776-21.238-8.167-28.282-16.625-9.418-11.306-13.744-26.222-13.844-40.874-.1-14.652 4.01-29.453 14.062-39.97 32.03-33.52 83.263-31 112.625-1.467 39.98 40.22 35.282 109.352-8.843 153.374v.03c-2.627 2.627-5.384 5.056-8.156 7.438 17.017 12.7 44.022 17.605 68.532 12.657 28.256-5.706 51.524-22.667 55.375-52.064 9.492-72.455-34.215-147.342-72.25-179.25-27.663-23.21-60.402-34.506-93.343-34.656z"></path></g>
</symbol>

<symbol id="painting_tools" fill="#b3b3b7" viewBox="0 0 256 256" xmlns="http://www.w3.org/2000/svg"><g id="SVGRepo_bgCarrier" stroke-width="0"></g><g id="SVGRepo_tracerCarrier" stroke-linecap="round" stroke-linejoin="round" stroke="#b3b3b7" stroke-width="10"> <path d="M228.9707,31.0293a4.00019,4.00019,0,0,0-4-4c-34.24365,0-70.457,33.03906-94.8623,60.83593a3.93076,3.93076,0,0,0-.29.33106c-7.544,8.61279-13.94824,16.706-18.79492,23.13574A55.99567,55.99567,0,0,0,36,164c0,33.43555-17.74414,48.2627-18.51074,48.88574A4.00024,4.00024,0,0,0,20,220H92a55.99567,55.99567,0,0,0,52.668-75.02344c6.42871-4.84619,14.52-11.249,23.13135-18.792a3.9779,3.9779,0,0,0,.34033-.29736C195.93506,101.48145,228.9707,65.27051,228.9707,31.0293ZM92,212H29.12891C35.45215,203.751,44,188.13672,44,164a48,48,0,1,1,48,48Zm26.51758-97.31006c4.3208-5.68506,9.46777-12.14941,15.2793-18.91015a80.2411,80.2411,0,0,1,26.42333,26.42333c-6.76074,5.811-13.22509,10.958-18.91015,15.2793A56.39659,56.39659,0,0,0,118.51758,114.68994Zm47.7876,2.16651a88.2,88.2,0,0,0-27.16163-27.16163,297.89617,297.89617,0,0,1,22.709-22.81982c21.83789-19.53711,41.63867-30.16992,58.93555-31.66309-1.49317,17.2959-12.126,37.09766-31.66211,58.93457A298.18827,298.18827,0,0,1,166.30518,116.85645Z"></path> </g><g id="SVGRepo_iconCarrier"> <path d="M228.9707,31.0293a4.00019,4.00019,0,0,0-4-4c-34.24365,0-70.457,33.03906-94.8623,60.83593a3.93076,3.93076,0,0,0-.29.33106c-7.544,8.61279-13.94824,16.706-18.79492,23.13574A55.99567,55.99567,0,0,0,36,164c0,33.43555-17.74414,48.2627-18.51074,48.88574A4.00024,4.00024,0,0,0,20,220H92a55.99567,55.99567,0,0,0,52.668-75.02344c6.42871-4.84619,14.52-11.249,23.13135-18.792a3.9779,3.9779,0,0,0,.34033-.29736C195.93506,101.48145,228.9707,65.27051,228.9707,31.0293ZM92,212H29.12891C35.45215,203.751,44,188.13672,44,164a48,48,0,1,1,48,48Zm26.51758-97.31006c4.3208-5.68506,9.46777-12.14941,15.2793-18.91015a80.2411,80.2411,0,0,1,26.42333,26.42333c-6.76074,5.811-13.22509,10.958-18.91015,15.2793A56.39659,56.39659,0,0,0,118.51758,114.68994Zm47.7876,2.16651a88.2,88.2,0,0,0-27.16163-27.16163,297.89617,297.89617,0,0,1,22.709-22.81982c21.83789-19.53711,41.63867-30.16992,58.93555-31.66309-1.49317,17.2959-12.126,37.09766-31.66211,58.93457A298.18827,298.18827,0,0,1,166.30518,116.85645Z"></path> </g>
</symbol>

<symbol id="minus_circle" viewBox="0 0 24 24" fill="none" xmlns="http://www.w3.org/2000/svg"><g id="SVGRepo_bgCarrier" stroke-width="0"></g><g id="SVGRepo_tracerCarrier" stroke-linecap="round" stroke-linejoin="round"></g><g id="SVGRepo_iconCarrier"> <path d="M12 2.84952C17.0536 2.84952 21.1504 6.94633 21.1504 12C21.1504 17.0537 17.0536 21.1505 12 21.1505C6.9463 21.1505 2.84949 17.0537 2.84949 12C2.84949 6.94633 6.9463 2.84952 12 2.84952Z" stroke="#b3b3b7" stroke-width="1.69904"></path> <path d="M9.39941 12L14.5902 12" stroke="#b3b3b7" stroke-width="1.69904" stroke-linecap="round"></path> </g>
</symbol>

<symbol id="plus_circle" viewBox="0 0 24 24" fill="none" xmlns="http://www.w3.org/2000/svg"><g id="SVGRepo_bgCarrier" stroke-width="0"></g><g id="SVGRepo_tracerCarrier" stroke-linecap="round" stroke-linejoin="round"></g><g id="SVGRepo_iconCarrier"> <path d="M12 2.84952C17.0536 2.84952 21.1504 6.94633 21.1504 12C21.1504 17.0537 17.0536 21.1505 12 21.1505C6.9463 21.1505 2.84949 17.0537 2.84949 12C2.84949 6.94633 6.9463 2.84952 12 2.84952Z" stroke="#b3b3b7" stroke-width="1.69904"></path> <path d="M9.39941 12L14.5902 12" stroke="#b3b3b7" stroke-width="1.69904" stroke-linecap="round"></path> <path d="M11.9949 9.4046L11.9949 14.5954" stroke="#b3b3b7" stroke-width="1.69904" stroke-linecap="round"></path> </g>
</symbol>

<symbol id="pen" viewBox="0 -2 32 32" version="1.1" xmlns="http://www.w3.org/2000/svg" xmlns:xlink="http://www.w3.org/1999/xlink" xmlns:sketch="http://www.bohemiancoding.com/sketch/ns" fill="#efeff3"><g id="SVGRepo_bgCarrier" stroke-width="0"></g><g id="SVGRepo_tracerCarrier" stroke-linecap="round" stroke-linejoin="round"></g><g id="SVGRepo_iconCarrier"> <title>brush</title> <g id="Page-1" stroke="none" stroke-width="1" fill="none" fill-rule="evenodd" sketch:type="MSPage"> <g id="Icon-Set" sketch:type="MSLayerGroup" transform="translate(-99.000000, -154.000000)" fill="#efeff3"> <path d="M128.735,157.585 L116.047,170.112 L114.65,168.733 L127.339,156.206 C127.725,155.825 128.35,155.825 128.735,156.206 C129.121,156.587 129.121,157.204 128.735,157.585 L128.735,157.585 Z M112.556,173.56 C112.427,173.433 111.159,172.181 111.159,172.181 L113.254,170.112 L114.65,171.491 L112.556,173.56 L112.556,173.56 Z M110.461,178.385 C109.477,179.298 105.08,181.333 102.491,179.36 C102.491,179.36 103.392,178.657 104.074,177.246 C105.703,172.919 109.763,173.56 109.763,173.56 L111.159,174.938 C111.173,174.952 112.202,176.771 110.461,178.385 L110.461,178.385 Z M130.132,154.827 C128.975,153.685 127.099,153.685 125.942,154.827 L108.764,171.788 C106.661,171.74 103.748,172.485 102.491,176.603 C101.53,178.781 99,178.671 99,178.671 C104.253,184.498 110.444,181.196 111.857,179.764 C113.1,178.506 113.279,176.966 113.146,175.734 L130.132,158.964 C131.289,157.821 131.289,155.969 130.132,154.827 L130.132,154.827 Z" id="brush" sketch:type="MSShapeGroup"> </path> </g> </g> </g>
</symbol>

<symbol id="eraser" viewBox="0 0 24 24" fill="none" xmlns="http://www.w3.org/2000/svg"><g id="SVGRepo_bgCarrier" stroke-width="0"></g><g id="SVGRepo_tracerCarrier" stroke-linecap="round" stroke-linejoin="round"></g><g id="SVGRepo_iconCarrier"> <path d="M5.50506 11.4096L6.03539 11.9399L5.50506 11.4096ZM3 14.9522H2.25H3ZM9.04776 21V21.75V21ZM11.4096 5.50506L10.8792 4.97473L11.4096 5.50506ZM13.241 17.8444C13.5339 18.1373 14.0088 18.1373 14.3017 17.8444C14.5946 17.5515 14.5946 17.0766 14.3017 16.7837L13.241 17.8444ZM7.21629 9.69832C6.9234 9.40543 6.44852 9.40543 6.15563 9.69832C5.86274 9.99122 5.86274 10.4661 6.15563 10.759L7.21629 9.69832ZM17.9646 12.0601L12.0601 17.9646L13.1208 19.0253L19.0253 13.1208L17.9646 12.0601ZM6.03539 11.9399L11.9399 6.03539L10.8792 4.97473L4.97473 10.8792L6.03539 11.9399ZM6.03539 17.9646C5.18538 17.1146 4.60235 16.5293 4.22253 16.0315C3.85592 15.551 3.75 15.2411 3.75 14.9522H2.25C2.25 15.701 2.56159 16.3274 3.03 16.9414C3.48521 17.538 4.1547 18.2052 4.97473 19.0253L6.03539 17.9646ZM4.97473 10.8792C4.1547 11.6993 3.48521 12.3665 3.03 12.9631C2.56159 13.577 2.25 14.2035 2.25 14.9522H3.75C3.75 14.6633 3.85592 14.3535 4.22253 13.873C4.60235 13.3752 5.18538 12.7899 6.03539 11.9399L4.97473 10.8792ZM12.0601 17.9646C11.2101 18.8146 10.6248 19.3977 10.127 19.7775C9.64651 20.1441 9.33665 20.25 9.04776 20.25V21.75C9.79649 21.75 10.423 21.4384 11.0369 20.97C11.6335 20.5148 12.3008 19.8453 13.1208 19.0253L12.0601 17.9646ZM4.97473 19.0253C5.79476 19.8453 6.46201 20.5148 7.05863 20.97C7.67256 21.4384 8.29902 21.75 9.04776 21.75V20.25C8.75886 20.25 8.449 20.1441 7.9685 19.7775C7.47069 19.3977 6.88541 18.8146 6.03539 17.9646L4.97473 19.0253ZM17.9646 6.03539C18.8146 6.88541 19.3977 7.47069 19.7775 7.9685C20.1441 8.449 20.25 8.75886 20.25 9.04776H21.75C21.75 8.29902 21.4384 7.67256 20.97 7.05863C20.5148 6.46201 19.8453 5.79476 19.0253 4.97473L17.9646 6.03539ZM19.0253 13.1208C19.8453 12.3008 20.5148 11.6335 20.97 11.0369C21.4384 10.423 21.75 9.79649 21.75 9.04776H20.25C20.25 9.33665 20.1441 9.64651 19.7775 10.127C19.3977 10.6248 18.8146 11.2101 17.9646 12.0601L19.0253 13.1208ZM19.0253 4.97473C18.2052 4.1547 17.538 3.48521 16.9414 3.03C16.3274 2.56159 15.701 2.25 14.9522 2.25V3.75C15.2411 3.75 15.551 3.85592 16.0315 4.22253C16.5293 4.60235 17.1146 5.18538 17.9646 6.03539L19.0253 4.97473ZM11.9399 6.03539C12.7899 5.18538 13.3752 4.60235 13.873 4.22253C14.3535 3.85592 14.6633 3.75 14.9522 3.75V2.25C14.2035 2.25 13.577 2.56159 12.9631 3.03C12.3665 3.48521 11.6993 4.1547 10.8792 4.97473L11.9399 6.03539ZM14.3017 16.7837L7.21629 9.69832L6.15563 10.759L13.241 17.8444L14.3017 16.7837Z" fill="#efeff3"></path> <path d="M9 21H21" stroke="#efeff3" stroke-width="1.5" stroke-linecap="round"></path> </g>
</symbol>

<symbol id="color_picker" viewBox="0 0 16 16" xmlns:dc="http://purl.org/dc/elements/1.1/" xmlns:cc="http://creativecommons.org/ns#" xmlns:rdf="http://www.w3.org/1999/02/22-rdf-syntax-ns#" xmlns="http://www.w3.org/2000/svg" version="1.1" fill="#000000"><g id="SVGRepo_bgCarrier" stroke-width="0"></g><g id="SVGRepo_tracerCarrier" stroke-linecap="round" stroke-linejoin="round"></g><g id="SVGRepo_iconCarrier"><metadata id="metadata6196"><rdf:rdf><cc:work><dc:format>image/svg+xml</dc:format><dc:type rdf:resource="http://purl.org/dc/dcmitype/StillImage"></dc:type><dc:title></dc:title><dc:date>2021</dc:date><dc:creator><cc:agent><dc:title>Timothée Giet</dc:title></cc:agent></dc:creator><cc:license rdf:resource="http://creativecommons.org/licenses/by-sa/4.0/"></cc:license></cc:work><cc:license rdf:about="http://creativecommons.org/licenses/by-sa/4.0/"><cc:permits rdf:resource="http://creativecommons.org/ns#Reproduction"></cc:permits><cc:permits rdf:resource="http://creativecommons.org/ns#Distribution"></cc:permits><cc:requires rdf:resource="http://creativecommons.org/ns#Notice"></cc:requires><cc:requires rdf:resource="http://creativecommons.org/ns#Attribution"></cc:requires><cc:permits rdf:resource="http://creativecommons.org/ns#DerivativeWorks"></cc:permits><cc:requires rdf:resource="http://creativecommons.org/ns#ShareAlike"></cc:requires></cc:license></rdf:rdf></metadata><rect style="opacity:1;vector-effect:none;fill:#00000000;fill-opacity:1;stroke:none;stroke-width:3.20000005;stroke-linecap:square;stroke-linejoin:round;stroke-miterlimit:4;stroke-dasharray:none;stroke-dashoffset:3.20000005;stroke-opacity:1" id="rect1290" width="16" height="16" x="0" y="0"></rect><rect y="1" x="1" height="4.0000005" width="4.0000005" id="rect6829-4" style="display:inline;fill:#5da1f3;fill-opacity:1;stroke:none;stroke-width:1.15467715"></rect><rect style="display:inline;fill:#5dd3f3;fill-opacity:1;stroke:none;stroke-width:1.15467715" id="rect6831-7" width="4.0000005" height="4.0000005" x="6" y="1"></rect><rect y="1" x="11" height="4.0000005" width="4.0000005" id="rect6833-1" style="display:inline;fill:#5df3e3;fill-opacity:1;stroke:none;stroke-width:1.15467715"></rect><rect style="display:inline;fill:#f35d5d;fill-opacity:1;stroke:none;stroke-width:1.15466905" id="rect6835-3" width="4.0000005" height="3.999944" x="1" y="6"></rect><rect y="11" x="1" height="4.0000005" width="4.0000005" id="rect6837-2" style="display:inline;fill:#f3c05d;fill-opacity:1;stroke:none;stroke-width:1.15467715"></rect><rect y="6" x="6" height="3.999944" width="4.0000005" id="rect6839-1" style="display:inline;fill:#f35d99;fill-opacity:1;stroke:none;stroke-width:1.15466905"></rect><rect style="display:inline;fill:#d55df3;fill-opacity:1;stroke:none;stroke-width:1.15466905" id="rect6841-6" width="4.0000005" height="3.999944" x="11" y="6"></rect><rect style="display:inline;fill:#d5f35d;fill-opacity:1;stroke:none;stroke-width:1.15467715" id="rect6843-3" width="4.0000005" height="4.0000005" x="6" y="11"></rect><rect y="11" x="11" height="4.0000005" width="4.0000005" id="rect6845-8" style="display:inline;fill:#8bf35d;fill-opacity:1;stroke:none;stroke-width:1.15467715"></rect></g>
</symbol>

<symbol id="shape_picker" viewBox="0 0 24 24" fill="none" xmlns="http://www.w3.org/2000/svg"><g id="SVGRepo_bgCarrier" stroke-width="0"></g><g id="SVGRepo_tracerCarrier" stroke-linecap="round" stroke-linejoin="round"></g><g id="SVGRepo_iconCarrier"> <path d="M8 10L12 3L16 10H8Z" stroke="#b3b3b7" stroke-width="2" stroke-linecap="round" stroke-linejoin="round"></path> <path d="M10 17.5C10 19.433 8.433 21 6.5 21C4.567 21 3 19.433 3 17.5C3 15.567 4.567 14 6.5 14C8.433 14 10 15.567 10 17.5Z" stroke="#b3b3b7" stroke-width="2" stroke-linecap="round" stroke-linejoin="round"></path> <path d="M14 14H21V21H14V14Z" stroke="#b3b3b7" stroke-width="2" stroke-linecap="round" stroke-linejoin="round"></path> </g>
</symbol>

<symbol id="circle_shape"  viewBox="0 0 24 24" fill="none" xmlns="http://www.w3.org/2000/svg"><g id="SVGRepo_bgCarrier" stroke-width="0"></g><g id="SVGRepo_tracerCarrier" stroke-linecap="round" stroke-linejoin="round"></g><g id="SVGRepo_iconCarrier"> <path d="M21 12C21 16.9706 16.9706 21 12 21C7.02944 21 3 16.9706 3 12C3 7.02944 7.02944 3 12 3C16.9706 3 21 7.02944 21 12Z" stroke="#b3b3b7" stroke-width="2" stroke-linecap="round" stroke-linejoin="round"></path> </g>
</symbol>

<symbol id="square_shape" viewBox="0 0 24 24" fill="none" xmlns="http://www.w3.org/2000/svg"><g id="SVGRepo_bgCarrier" stroke-width="0"></g><g id="SVGRepo_tracerCarrier" stroke-linecap="round" stroke-linejoin="round"></g><g id="SVGRepo_iconCarrier"> <rect x="4" y="4" width="16" height="16" rx="2" stroke="#b3b3b7" stroke-width="2" stroke-linecap="round" stroke-linejoin="round"></rect> </g>
</symbol>


</defs>
</svg>

