
<svg xmlns="http://www.w3.org/2000/svg">
<defs>


<symbol id="chevron" viewBox="0 0 24 24" fill="none" xmlns="http://www.w3.org/2000/svg">
<g id="SVGRepo_bgCarrier" stroke-width="0"></g>
<g id="SVGRepo_tracerCarrier" stroke-linecap="round" stroke-linejoin="round"></g>
<g id="SVGRepo_iconCarrier"> <path d="M6 9L12 15L18 9M12 9H12.01" stroke="#efeff3" stroke-width="2" stroke-linecap="round" stroke-linejoin="round">
</path></g>
</symbol>

<symbol id="squares" viewBox="0 0 24 24" fill="none" xmlns="http://www.w3.org/2000/svg"><g id="SVGRepo_bgCarrier" stroke-width="0"></g><g id="SVGRepo_tracerCarrier" stroke-linecap="round" stroke-linejoin="round"></g><g id="SVGRepo_iconCarrier"> <path d="M4 0.5C3.07174 0.5 2.1815 0.868749 1.52513 1.52513C0.868749 2.1815 0.5 3.07174 0.5 4V13C0.5 13.9283 0.868749 14.8185 1.52513 15.4749C2.1815 16.1312 3.07174 16.5 4 16.5H6V9C6 7.34315 7.34315 6 9 6H16.5V4C16.5 3.07174 16.1312 2.1815 15.4749 1.52513C14.8185 0.868749 13.9283 0.5 13 0.5H4Z" fill="#000000"></path> <path d="M8 10.8125C8 9.2592 9.2592 8 10.8125 8H20.1875C21.7408 8 23 9.2592 23 10.8125V20.1875C23 21.7408 21.7408 23 20.1875 23H10.8125C9.2592 23 8 21.7408 8 20.1875V10.8125Z" fill="#000000"></path>
</g>
</symbol>


<symbol id="plus" viewBox="0 0 24 24" fill="none" xmlns="http://www.w3.org/2000/svg"><g id="SVGRepo_bgCarrier" stroke-width="0"></g><g id="SVGRepo_tracerCarrier" stroke-linecap="round" stroke-linejoin="round"></g><g id="SVGRepo_iconCarrier"> <path d="M4 12H20M12 4V20" stroke="#b3b3b7" stroke-width="2" stroke-linecap="round" stroke-linejoin="round"></path> </g>
</symbol>

<symbol id="minus" viewBox="0 0 24 24" fill="none" xmlns="http://www.w3.org/2000/svg"><g id="SVGRepo_bgCarrier" stroke-width="0"></g><g id="SVGRepo_tracerCarrier" stroke-linecap="round" stroke-linejoin="round"></g><g id="SVGRepo_iconCarrier"> <path d="M6 12L18 12" stroke="#b3b3b7" stroke-width="2" stroke-linecap="round" stroke-linejoin="round"></path> </g>
</symbol>

<symbol id="play" viewBox="0 0 24 24" fill="none" xmlns="http://www.w3.org/2000/svg"><g id="SVGRepo_bgCarrier" stroke-width="0"></g><g id="SVGRepo_tracerCarrier" stroke-linecap="round" stroke-linejoin="round"></g><g id="SVGRepo_iconCarrier"> <path d="M16.6582 9.28638C18.098 10.1862 18.8178 10.6361 19.0647 11.2122C19.2803 11.7152 19.2803 12.2847 19.0647 12.7878C18.8178 13.3638 18.098 13.8137 16.6582 14.7136L9.896 18.94C8.29805 19.9387 7.49907 20.4381 6.83973 20.385C6.26501 20.3388 5.73818 20.0469 5.3944 19.584C5 19.053 5 18.1108 5 16.2264V7.77357C5 5.88919 5 4.94701 5.3944 4.41598C5.73818 3.9531 6.26501 3.66111 6.83973 3.6149C7.49907 3.5619 8.29805 4.06126 9.896 5.05998L16.6582 9.28638Z" stroke="#b3b3b7" stroke-width="2" stroke-linejoin="round"></path> </g>
</symbol>

<symbol id="pause" viewBox="0 0 24 24" fill="none" xmlns="http://www.w3.org/2000/svg"><g id="SVGRepo_bgCarrier" stroke-width="0"></g><g id="SVGRepo_tracerCarrier" stroke-linecap="round" stroke-linejoin="round"></g><g id="SVGRepo_iconCarrier"> <path d="M8 5V19M16 5V19" stroke="#b3b3b7" stroke-width="2" stroke-linecap="round" stroke-linejoin="round"></path> </g>
</symbol>

<symbol id="close" viewBox="0 0 24 24" fill="none" xmlns="http://www.w3.org/2000/svg" stroke="#b3b3b7"><g id="SVGRepo_bgCarrier" stroke-width="0"></g><g id="SVGRepo_tracerCarrier" stroke-linecap="round" stroke-linejoin="round"></g><g id="SVGRepo_iconCarrier"> <path fill-rule="evenodd" clip-rule="evenodd" d="M10.9393 12L6.9696 15.9697L8.03026 17.0304L12 13.0607L15.9697 17.0304L17.0304 15.9697L13.0607 12L17.0303 8.03039L15.9696 6.96973L12 10.9393L8.03038 6.96973L6.96972 8.03039L10.9393 12Z" fill="#b3b3b7"></path> </g>
</symbol>

<symbol id="wave" fill="#b3b3b7" viewBox="0 0 24 24" xmlns="http://www.w3.org/2000/svg"><g id="SVGRepo_bgCarrier" stroke-width="0"></g><g id="SVGRepo_tracerCarrier" stroke-linecap="round" stroke-linejoin="round"></g><g id="SVGRepo_iconCarrier"><path d="M20 12a2 2 0 0 0-.703.133l-2.398-1.963c.059-.214.101-.436.101-.67C17 8.114 15.886 7 14.5 7S12 8.114 12 9.5c0 .396.1.765.262 1.097l-2.909 3.438A2.06 2.06 0 0 0 9 14c-.179 0-.348.03-.512.074l-2.563-2.563C5.97 11.348 6 11.179 6 11c0-1.108-.892-2-2-2s-2 .892-2 2 .892 2 2 2c.179 0 .348-.03.512-.074l2.563 2.563A1.906 1.906 0 0 0 7 16c0 1.108.892 2 2 2s2-.892 2-2c0-.237-.048-.46-.123-.671l2.913-3.442c.227.066.462.113.71.113a2.48 2.48 0 0 0 1.133-.281l2.399 1.963A2.077 2.077 0 0 0 18 14c0 1.108.892 2 2 2s2-.892 2-2-.892-2-2-2z"></path></g>
</symbol>

<symbol id="speed" viewBox="0 0 24 24" fill="none" xmlns="http://www.w3.org/2000/svg"><g id="SVGRepo_bgCarrier" stroke-width="0"></g><g id="SVGRepo_tracerCarrier" stroke-linecap="round" stroke-linejoin="round"></g><g id="SVGRepo_iconCarrier"> <path d="M4.65511 9.87598C3.74757 10.602 3.2938 10.965 3.12952 11.4036C2.98547 11.7881 2.98547 12.2118 3.12952 12.5963C3.2938 13.0349 3.74757 13.3979 4.65511 14.1239L9.40064 17.9203C10.2328 18.5861 10.6489 18.9189 10.9991 18.9193C11.3036 18.9196 11.5917 18.7812 11.7817 18.5432C12.0002 18.2695 12.0002 17.7366 12.0002 16.6709V7.32894C12.0002 6.26324 12.0002 5.73039 11.7817 5.45671C11.5917 5.2187 11.3036 5.08024 10.9991 5.08057C10.6489 5.08095 10.2328 5.41381 9.40064 6.07955L4.65511 9.87598Z" stroke="#b3b3b7" stroke-width="2" stroke-linejoin="round"></path> <path d="M14.1236 9.50116C13.0559 10.3553 12.5221 10.7824 12.3288 11.2983C12.1594 11.7507 12.1594 12.2492 12.3288 12.7015C12.5221 13.2175 13.0559 13.6446 14.1236 14.4987L18.4006 17.9203C19.2328 18.5861 19.6489 18.9189 19.9991 18.9193C20.3036 18.9196 20.5917 18.7812 20.7817 18.5432C21.0002 18.2695 21.0002 17.7366 21.0002 16.6709V7.32894C21.0002 6.26324 21.0002 5.73039 20.7817 5.45671C20.5917 5.2187 20.3036 5.08024 19.9991 5.08057C19.6489 5.08095 19.2328 5.41381 18.4006 6.07955L14.1236 9.50116Z" stroke="#b3b3b7" stroke-width="2" stroke-linejoin="round"></path> </g>
<title>Speed</title>
</symbol>

<symbol id="clock" viewBox="0 0 24 24" fill="none" xmlns="http://www.w3.org/2000/svg"><g id="SVGRepo_bgCarrier" stroke-width="0"></g><g id="SVGRepo_tracerCarrier" stroke-linecap="round" stroke-linejoin="round"></g><g id="SVGRepo_iconCarrier"> <path d="M5.06152 12C5.55362 8.05369 8.92001 5 12.9996 5C17.4179 5 20.9996 8.58172 20.9996 13C20.9996 17.4183 17.4179 21 12.9996 21H8M13 13V9M11 3H15M3 15H8M5 18H10" stroke="#b3b3b7" stroke-width="2" stroke-linecap="round" stroke-linejoin="round"></path> </g>
</symbol>

<symbol id="gear" viewBox="0 0 24 24" fill="none" xmlns="http://www.w3.org/2000/svg"><g id="SVGRepo_bgCarrier" stroke-width="0"></g><g id="SVGRepo_tracerCarrier" stroke-linecap="round" stroke-linejoin="round"></g><g id="SVGRepo_iconCarrier"> <path d="M15 12C15 13.6569 13.6569 15 12 15C10.3431 15 9 13.6569 9 12C9 10.3431 10.3431 9 12 9C13.6569 9 15 10.3431 15 12Z" stroke="#4c5366" stroke-width="2" stroke-linecap="round" stroke-linejoin="round"></path> <path d="M12.9046 3.06005C12.6988 3 12.4659 3 12 3C11.5341 3 11.3012 3 11.0954 3.06005C10.7942 3.14794 10.5281 3.32808 10.3346 3.57511C10.2024 3.74388 10.1159 3.96016 9.94291 4.39272C9.69419 5.01452 9.00393 5.33471 8.36857 5.123L7.79779 4.93281C7.3929 4.79785 7.19045 4.73036 6.99196 4.7188C6.70039 4.70181 6.4102 4.77032 6.15701 4.9159C5.98465 5.01501 5.83376 5.16591 5.53197 5.4677C5.21122 5.78845 5.05084 5.94882 4.94896 6.13189C4.79927 6.40084 4.73595 6.70934 4.76759 7.01551C4.78912 7.2239 4.87335 7.43449 5.04182 7.85566C5.30565 8.51523 5.05184 9.26878 4.44272 9.63433L4.16521 9.80087C3.74031 10.0558 3.52786 10.1833 3.37354 10.3588C3.23698 10.5141 3.13401 10.696 3.07109 10.893C3 11.1156 3 11.3658 3 11.8663C3 12.4589 3 12.7551 3.09462 13.0088C3.17823 13.2329 3.31422 13.4337 3.49124 13.5946C3.69158 13.7766 3.96395 13.8856 4.50866 14.1035C5.06534 14.3261 5.35196 14.9441 5.16236 15.5129L4.94721 16.1584C4.79819 16.6054 4.72367 16.829 4.7169 17.0486C4.70875 17.3127 4.77049 17.5742 4.89587 17.8067C5.00015 18.0002 5.16678 18.1668 5.5 18.5C5.83323 18.8332 5.99985 18.9998 6.19325 19.1041C6.4258 19.2295 6.68733 19.2913 6.9514 19.2831C7.17102 19.2763 7.39456 19.2018 7.84164 19.0528L8.36862 18.8771C9.00393 18.6654 9.6942 18.9855 9.94291 19.6073C10.1159 20.0398 10.2024 20.2561 10.3346 20.4249C10.5281 20.6719 10.7942 20.8521 11.0954 20.94C11.3012 21 11.5341 21 12 21C12.4659 21 12.6988 21 12.9046 20.94C13.2058 20.8521 13.4719 20.6719 13.6654 20.4249C13.7976 20.2561 13.8841 20.0398 14.0571 19.6073C14.3058 18.9855 14.9961 18.6654 15.6313 18.8773L16.1579 19.0529C16.605 19.2019 16.8286 19.2764 17.0482 19.2832C17.3123 19.2913 17.5738 19.2296 17.8063 19.1042C17.9997 18.9999 18.1664 18.8333 18.4996 18.5001C18.8328 18.1669 18.9994 18.0002 19.1037 17.8068C19.2291 17.5743 19.2908 17.3127 19.2827 17.0487C19.2759 16.8291 19.2014 16.6055 19.0524 16.1584L18.8374 15.5134C18.6477 14.9444 18.9344 14.3262 19.4913 14.1035C20.036 13.8856 20.3084 13.7766 20.5088 13.5946C20.6858 13.4337 20.8218 13.2329 20.9054 13.0088C21 12.7551 21 12.4589 21 11.8663C21 11.3658 21 11.1156 20.9289 10.893C20.866 10.696 20.763 10.5141 20.6265 10.3588C20.4721 10.1833 20.2597 10.0558 19.8348 9.80087L19.5569 9.63416C18.9478 9.26867 18.6939 8.51514 18.9578 7.85558C19.1262 7.43443 19.2105 7.22383 19.232 7.01543C19.2636 6.70926 19.2003 6.40077 19.0506 6.13181C18.9487 5.94875 18.7884 5.78837 18.4676 5.46762C18.1658 5.16584 18.0149 5.01494 17.8426 4.91583C17.5894 4.77024 17.2992 4.70174 17.0076 4.71872C16.8091 4.73029 16.6067 4.79777 16.2018 4.93273L15.6314 5.12287C14.9961 5.33464 14.3058 5.0145 14.0571 4.39272C13.8841 3.96016 13.7976 3.74388 13.6654 3.57511C13.4719 3.32808 13.2058 3.14794 12.9046 3.06005Z" stroke="#4c5366" stroke-width="2" stroke-linecap="round" stroke-linejoin="round"></path> </g>
</symbol>

<symbol id="range" viewBox="0 0 24 24" fill="none" xmlns="http://www.w3.org/2000/svg"><g id="SVGRepo_bgCarrier" stroke-width="0"></g><g id="SVGRepo_tracerCarrier" stroke-linecap="round" stroke-linejoin="round"></g><g id="SVGRepo_iconCarrier"> <path d="M12 5.5C12 6.88071 10.8807 8 9.5 8C8.11929 8 7 6.88071 7 5.5M12 5.5C12 4.11929 10.8807 3 9.5 3C8.11929 3 7 4.11929 7 5.5M12 5.5H21M7 5.5H3M19 12C19 13.3807 17.8807 14.5 16.5 14.5C15.1193 14.5 14 13.3807 14 12M19 12C19 10.6193 17.8807 9.5 16.5 9.5C15.1193 9.5 14 10.6193 14 12M19 12H21M14 12H3M10 18.5C10 19.8807 8.88071 21 7.5 21C6.11929 21 5 19.8807 5 18.5M10 18.5C10 17.1193 8.88071 16 7.5 16C6.11929 16 5 17.1193 5 18.5M10 18.5H21M5 18.5H3" stroke="#b3b3b7" stroke-width="2" stroke-linecap="round" stroke-linejoin="round"></path> </g>
</symbol>

<symbol id="reset" viewBox="0 0 24 24" fill="none" xmlns="http://www.w3.org/2000/svg"><g id="SVGRepo_bgCarrier" stroke-width="0"></g><g id="SVGRepo_tracerCarrier" stroke-linecap="round" stroke-linejoin="round"></g><g id="SVGRepo_iconCarrier"> <path d="M3 3V8M3 8H8M3 8L6 5.29168C7.59227 3.86656 9.69494 3 12 3C16.9706 3 21 7.02944 21 12C21 16.9706 16.9706 21 12 21C7.71683 21 4.13247 18.008 3.22302 14" stroke="#b3b3b7" stroke-width="2" stroke-linecap="round" stroke-linejoin="round"></path> </g>
</symbol>

<symbol id="random" viewBox="0 0 512 512" version="1.1" xmlns="http://www.w3.org/2000/svg" xmlns:xlink="http://www.w3.org/1999/xlink" fill="#000000"><g id="SVGRepo_bgCarrier" stroke-width="0"></g><g id="SVGRepo_tracerCarrier" stroke-linecap="round" stroke-linejoin="round"></g><g id="SVGRepo_iconCarrier"> <title>random</title> <g id="Page-1" stroke="none" stroke-width="1" fill="none" fill-rule="evenodd"> <g id="icon" fill="#b3b3b7" transform="translate(46.976875, 46.976875)"> <path d="M379.689791,38.3564581 L379.689791,379.689791 L38.3564581,379.689791 L38.3564581,38.3564581 L379.689791,38.3564581 Z M337.023125,81.0231247 L81.0231247,81.0231247 L81.0231247,337.023125 L337.023125,337.023125 L337.023125,81.0231247 Z M283.689791,251.689791 C301.362903,251.689791 315.689791,266.016679 315.689791,283.689791 C315.689791,301.362903 301.362903,315.689791 283.689791,315.689791 C266.016679,315.689791 251.689791,301.362903 251.689791,283.689791 C251.689791,266.016679 266.016679,251.689791 283.689791,251.689791 Z M209.023125,177.023125 C226.696237,177.023125 241.023125,191.350013 241.023125,209.023125 C241.023125,226.696237 226.696237,241.023125 209.023125,241.023125 C191.350013,241.023125 177.023125,226.696237 177.023125,209.023125 C177.023125,191.350013 191.350013,177.023125 209.023125,177.023125 Z M134.356458,102.356458 C152.02957,102.356458 166.356458,116.683346 166.356458,134.356458 C166.356458,152.02957 152.02957,166.356458 134.356458,166.356458 C116.683346,166.356458 102.356458,152.02957 102.356458,134.356458 C102.356458,116.683346 116.683346,102.356458 134.356458,102.356458 Z" id="Combined-Shape" transform="translate(209.023125, 209.023125) rotate(-345.000000) translate(-209.023125, -209.023125) "> </path> </g> </g> </g>
</symbol>

<symbol id="queue" viewBox="0 0 24 24" fill="none" xmlns="http://www.w3.org/2000/svg"><g id="SVGRepo_bgCarrier" stroke-width="0"></g><g id="SVGRepo_tracerCarrier" stroke-linecap="round" stroke-linejoin="round"></g><g id="SVGRepo_iconCarrier"> <path d="M12 18.25C11.4477 18.25 11 17.8023 11 17.25V16H9.75C9.19772 16 8.75 15.5523 8.75 15C8.75 14.4477 9.19772 14 9.75 14H11V12.75C11 12.1977 11.4477 11.75 12 11.75C12.5523 11.75 13 12.1977 13 12.75V14H14.25C14.8023 14 15.25 14.4477 15.25 15C15.25 15.5523 14.8023 16 14.25 16H13V17.25C13 17.8023 12.5523 18.25 12 18.25Z" fill="#b3b3b7"></path> <path fill-rule="evenodd" clip-rule="evenodd" d="M7 5V4C7 2.89543 7.89543 2 9 2H15C16.1046 2 17 2.89543 17 4V5C18.1046 5 19 5.89543 19 7V8C19 8.05667 18.9976 8.11278 18.993 8.16825C20.1619 8.57811 21 9.69117 21 11V19C21 20.6569 19.6569 22 18 22H6C4.34315 22 3 20.6569 3 19V11C3 9.69118 3.83814 8.57811 5.00698 8.16825C5.00236 8.11278 5 8.05666 5 8V7C5 5.89543 5.89543 5 7 5ZM9 4H15V5H9V4ZM17 7V8H7V7H17ZM6 10H18C18.5523 10 19 10.4477 19 11V19C19 19.5523 18.5523 20 18 20H6C5.44772 20 5 19.5523 5 19V11C5 10.4477 5.44772 10 6 10Z" fill="#b3b3b7"></path> </g>
</symbol>

<symbol id="baby" fill="#b3b3b7" viewBox="0 0 256 256" xmlns="http://www.w3.org/2000/svg"><g id="SVGRepo_bgCarrier" stroke-width="0"></g><g id="SVGRepo_tracerCarrier" stroke-linecap="round" stroke-linejoin="round"></g><g id="SVGRepo_iconCarrier"> <path d="M131.92139,24.0813C120.32031,40.37354,120.002,55.87939,120,56.044A8.00006,8.00006,0,0,0,136,56a8,8,0,0,1,16,0,24,24,0,0,1-48,0c0-.72876.125-14.4248,8.57715-30.85474a104.06072,104.06072,0,1,0,19.34424-1.064ZM80,128a12,12,0,1,1,12,12A12,12,0,0,1,80,128Zm78.9668,46.665a56.03047,56.03047,0,0,1-61.93213.001,7.99982,7.99982,0,1,1,8.85742-13.32422,40.03347,40.03347,0,0,0,44.21777-.001A7.99969,7.99969,0,1,1,158.9668,174.665ZM164,140a12,12,0,1,1,12-12A12,12,0,0,1,164,140Z"></path> </g>
</symbol>

<symbol id="drag" viewBox="0 0 24 24" fill="none" xmlns="http://www.w3.org/2000/svg"><g id="SVGRepo_bgCarrier" stroke-width="0"></g><g id="SVGRepo_tracerCarrier" stroke-linecap="round" stroke-linejoin="round"></g><g id="SVGRepo_iconCarrier"> <g id="Interface / Drag_Vertical"> <g id="Vector"> <path d="M14 18C14 18.5523 14.4477 19 15 19C15.5523 19 16 18.5523 16 18C16 17.4477 15.5523 17 15 17C14.4477 17 14 17.4477 14 18Z" stroke="#b3b3b7" stroke-width="2" stroke-linecap="round" stroke-linejoin="round"></path> <path d="M8 18C8 18.5523 8.44772 19 9 19C9.55228 19 10 18.5523 10 18C10 17.4477 9.55228 17 9 17C8.44772 17 8 17.4477 8 18Z" stroke="#b3b3b7" stroke-width="2" stroke-linecap="round" stroke-linejoin="round"></path> <path d="M14 12C14 12.5523 14.4477 13 15 13C15.5523 13 16 12.5523 16 12C16 11.4477 15.5523 11 15 11C14.4477 11 14 11.4477 14 12Z" stroke="#b3b3b7" stroke-width="2" stroke-linecap="round" stroke-linejoin="round"></path> <path d="M8 12C8 12.5523 8.44772 13 9 13C9.55228 13 10 12.5523 10 12C10 11.4477 9.55228 11 9 11C8.44772 11 8 11.4477 8 12Z" stroke="#b3b3b7" stroke-width="2" stroke-linecap="round" stroke-linejoin="round"></path> <path d="M14 6C14 6.55228 14.4477 7 15 7C15.5523 7 16 6.55228 16 6C16 5.44772 15.5523 5 15 5C14.4477 5 14 5.44772 14 6Z" stroke="#b3b3b7" stroke-width="2" stroke-linecap="round" stroke-linejoin="round"></path> <path d="M8 6C8 6.55228 8.44772 7 9 7C9.55228 7 10 6.55228 10 6C10 5.44772 9.55228 5 9 5C8.44772 5 8 5.44772 8 6Z" stroke="#b3b3b7" stroke-width="2" stroke-linecap="round" stroke-linejoin="round"></path> </g> </g> </g>
</symbol>

<symbol id="arrowUp" viewBox="0 0 24 24" fill="none" xmlns="http://www.w3.org/2000/svg"><g id="SVGRepo_bgCarrier" stroke-width="0"></g><g id="SVGRepo_tracerCarrier" stroke-linecap="round" stroke-linejoin="round"></g><g id="SVGRepo_iconCarrier"> <path d="M15 11L12 8M12 8L9 11M12 8V16M21 12C21 16.9706 16.9706 21 12 21C7.02944 21 3 16.9706 3 12C3 7.02944 7.02944 3 12 3C16.9706 3 21 7.02944 21 12Z" stroke="#059669" stroke-width="2" stroke-linecap="round" stroke-linejoin="round"></path> </g>
</symbol>


<symbol id="arrowDown" viewBox="0 0 24 24" fill="none" xmlns="http://www.w3.org/2000/svg"><g id="SVGRepo_bgCarrier" stroke-width="0"></g><g id="SVGRepo_tracerCarrier" stroke-linecap="round" stroke-linejoin="round"></g><g id="SVGRepo_iconCarrier"> <path d="M9 13L12 16M12 16L15 13M12 16V8M21 12C21 16.9706 16.9706 21 12 21C7.02944 21 3 16.9706 3 12C3 7.02944 7.02944 3 12 3C16.9706 3 21 7.02944 21 12Z" stroke="#DC2626" stroke-width="2" stroke-linecap="round" stroke-linejoin="round"></path> </g>
</symbol>

<symbol id="population" viewBox="0 0 24 24" fill="none" xmlns="http://www.w3.org/2000/svg"><g id="SVGRepo_bgCarrier" stroke-width="0"></g><g id="SVGRepo_tracerCarrier" stroke-linecap="round" stroke-linejoin="round"></g><g id="SVGRepo_iconCarrier"> <path d="M16.719 19.7519L16.0785 14.6279C15.8908 13.1266 14.6146 12 13.1017 12H12H10.8983C9.38538 12 8.10917 13.1266 7.92151 14.6279L7.28101 19.7519C7.1318 20.9456 8.06257 22 9.26556 22H12H14.7344C15.9374 22 16.8682 20.9456 16.719 19.7519Z" stroke="#b3b3b7" stroke-width="2" stroke-linecap="round" stroke-linejoin="round"></path> <circle cx="12" cy="5" r="3" stroke="#b3b3b7" stroke-width="2"></circle> <circle cx="4" cy="9" r="2" stroke="#b3b3b7" stroke-width="2"></circle> <circle cx="20" cy="9" r="2" stroke="#b3b3b7" stroke-width="2"></circle> <path d="M4 14H3.69425C2.71658 14 1.8822 14.7068 1.72147 15.6712L1.38813 17.6712C1.18496 18.8903 2.12504 20 3.36092 20H7" stroke="#b3b3b7" stroke-width="2" stroke-linecap="round" stroke-linejoin="round"></path> <path d="M20 14H20.3057C21.2834 14 22.1178 14.7068 22.2785 15.6712L22.6119 17.6712C22.815 18.8903 21.8751 20 20.6392 20C19.4775 20 18.0952 20 17 20" stroke="#b3b3b7" stroke-width="2" stroke-linecap="round" stroke-linejoin="round"></path> </g>
</symbol>

<symbol id="heart" viewBox="0 0 24 24" fill="none" xmlns="http://www.w3.org/2000/svg"><g id="SVGRepo_bgCarrier" stroke-width="0"></g><g id="SVGRepo_tracerCarrier" stroke-linecap="round" stroke-linejoin="round"></g><g id="SVGRepo_iconCarrier"> <path fill-rule="evenodd" clip-rule="evenodd" d="M12 6.00019C10.2006 3.90317 7.19377 3.2551 4.93923 5.17534C2.68468 7.09558 2.36727 10.3061 4.13778 12.5772C5.60984 14.4654 10.0648 18.4479 11.5249 19.7369C11.6882 19.8811 11.7699 19.9532 11.8652 19.9815C11.9483 20.0062 12.0393 20.0062 12.1225 19.9815C12.2178 19.9532 12.2994 19.8811 12.4628 19.7369C13.9229 18.4479 18.3778 14.4654 19.8499 12.5772C21.6204 10.3061 21.3417 7.07538 19.0484 5.17534C16.7551 3.2753 13.7994 3.90317 12 6.00019Z" stroke="#b3b3b7" stroke-width="2" stroke-linecap="round" stroke-linejoin="round"></path> </g>
</symbol>

<symbol id="skull" fill="#b3b3b7" viewBox="0 0 32 32" version="1.1" xmlns="http://www.w3.org/2000/svg"><g id="SVGRepo_bgCarrier" stroke-width="0"></g><g id="SVGRepo_tracerCarrier" stroke-linecap="round" stroke-linejoin="round"></g><g id="SVGRepo_iconCarrier"> <title>skull</title> <path d="M16 1c-7.5 0-15 3.75-15 9.375 0 3.75 2.813 5.625 2.813 9.375 0 2.813-0.937 2.813-0.937 4.688 0 0.937 3.001 2 5.625 2.813v3.75h15.001v-3.75c0 0 5.66-1.747 5.625-2.813-0.058-1.747-0.937-1.875-0.937-4.688 0-1.875 2.852-5.714 2.813-9.375-0.002-5.625-7.501-9.375-15.001-9.375zM10.374 12.249c2.071 0 3.75 1.679 3.75 3.75s-1.679 3.75-3.75 3.75-3.75-1.679-3.75-3.75c0-2.071 1.679-3.75 3.75-3.75zM21.625 12.249c2.071 0 3.75 1.679 3.75 3.75s-1.679 3.75-3.75 3.75-3.75-1.679-3.75-3.75c0-2.071 1.679-3.75 3.75-3.75zM16 18.812c0.937 0 2.813 3.75 2.813 4.688 0 1.875 0 1.875-0.937 1.875h-3.75c-0.937 0-0.937 0-0.937-1.875-0.001-0.938 1.874-4.688 2.812-4.688z"></path> </g>
</symbol>

<symbol id="shuffle" viewBox="0 0 24 24" fill="none" xmlns="http://www.w3.org/2000/svg"><g id="SVGRepo_bgCarrier" stroke-width="0"></g><g id="SVGRepo_tracerCarrier" stroke-linecap="round" stroke-linejoin="round"></g><g id="SVGRepo_iconCarrier"> <path d="M18 4L21 7M21 7L18 10M21 7H17C16.0707 7 15.606 7 15.2196 7.07686C13.6329 7.39249 12.3925 8.63288 12.0769 10.2196C12 10.606 12 11.0707 12 12C12 12.9293 12 13.394 11.9231 13.7804C11.6075 15.3671 10.3671 16.6075 8.78036 16.9231C8.39397 17 7.92931 17 7 17H3M18 20L21 17M21 17L18 14M21 17H17C16.0707 17 15.606 17 15.2196 16.9231C15.1457 16.9084 15.0724 16.8917 15 16.873M3 7H7C7.92931 7 8.39397 7 8.78036 7.07686C8.85435 7.09158 8.92758 7.1083 9 7.12698" stroke="#b3b3b7" stroke-width="2" stroke-linecap="round" stroke-linejoin="round"></path> </g>
</symbol>

<symbol id="caret" viewBox="0 0 16 16" xmlns="http://www.w3.org/2000/svg" fill="#1d1f25" class="bi bi-caret-left-fill"><g id="SVGRepo_bgCarrier" stroke-width="0"></g><g id="SVGRepo_tracerCarrier" stroke-linecap="round" stroke-linejoin="round"></g><g id="SVGRepo_iconCarrier"> <path d="m3.86 8.753 5.482 4.796c.646.566 1.658.106 1.658-.753V3.204a1 1 0 0 0-1.659-.753l-5.48 4.796a1 1 0 0 0 0 1.506z"></path> </g>
</symbol>

<symbol id="hare" fill="#b3b3b7" viewBox="0 0 56 56" xmlns="http://www.w3.org/2000/svg"><g id="SVGRepo_bgCarrier" stroke-width="0"></g><g id="SVGRepo_tracerCarrier" stroke-linecap="round" stroke-linejoin="round"></g><g id="SVGRepo_iconCarrier"><path d="M 29.3459 49.1765 C 30.6543 49.1765 31.7945 48.5597 34.2618 48.5597 C 36.7292 48.5597 37.4018 49.1765 39.2335 49.1765 C 42.0001 49.1765 43.4582 48.0176 43.4582 46.0924 C 43.4582 42.8027 39.8694 40.5971 34.2431 40.5971 C 31.4767 40.5971 30.2244 40.8587 28.6730 41.2513 L 26.6542 36.6531 C 24.6542 32.2419 21.4767 29.3634 16.9533 29.3634 L 14.7477 29.3634 C 14.0187 29.3634 13.5327 29.0456 13.5327 28.3353 C 13.5327 27.1765 15.0841 26.8961 16.7851 26.8961 C 22.2430 26.8961 26.2991 29.9054 28.7664 35.9615 L 30.0374 39.0830 C 31.3085 38.8213 32.6730 38.6905 34.0562 38.6905 C 35.1590 38.6905 36.1684 38.7653 37.2338 38.9148 C 38.3554 38.0737 39.6638 37.1952 41.5514 36.3727 C 43.6450 37.7933 46.0188 38.7092 48.5234 38.7092 C 53.6825 38.7092 56.0000 37.5877 56.0000 32.7092 C 56.0000 26.8213 51.7382 22.4101 46.0750 22.4288 L 41.0469 15.7559 C 38.2245 12.0923 34.8786 10.3353 31.5701 10.3353 C 28.8412 10.3353 24.7851 11.9054 24.7851 14.1110 C 24.7851 15.6064 27.8131 17.6998 30.1496 19.1391 L 40.9160 25.7185 C 40.0749 26.5223 39.3086 26.9522 38.3925 26.9522 C 36.9348 26.9522 35.4392 26.0737 33.1777 24.7653 C 27.4019 21.4382 22.9720 18.3167 16.9907 18.3167 C 10.7664 18.3167 6.0374 21.8867 3.5140 28.8400 C 1.5140 28.8400 0 30.1485 0 32.0737 C 0 34.2419 1.7196 35.6064 4.0748 35.6064 C 6.8038 39.4195 11.2711 40.9522 16.5608 40.9522 C 16.8412 40.9522 17.1215 40.9335 17.4019 40.9335 L 24.9720 47.2139 C 26.8412 48.9148 27.9253 49.1765 29.3459 49.1765 Z M 48.0936 31.8120 C 47.2525 31.8120 46.5796 31.1017 46.5796 30.2793 C 46.5796 29.4382 47.2713 28.6905 48.1123 28.6905 C 48.9721 28.6905 49.6263 29.3634 49.6263 30.2045 C 49.6263 31.0456 48.9346 31.8120 48.0936 31.8120 Z M 15.8318 50.6531 C 19.4393 50.6531 21.6262 49.9616 23.4206 48.7279 L 17.6449 43.9055 C 17.3832 43.9242 17.0655 43.9616 16.6729 43.9616 C 15.7383 43.9616 14.3552 43.6812 12.7103 43.6812 C 10.6168 43.6812 9.3271 44.8027 9.3271 46.4849 C 9.3271 48.9896 11.8692 50.6531 15.8318 50.6531 Z"></path></g>
</symbol>

<symbol id="snail" viewBox="0 0 512 512" xmlns="http://www.w3.org/2000/svg" fill="#b3b3b7"><g id="SVGRepo_bgCarrier" stroke-width="0"></g><g id="SVGRepo_tracerCarrier" stroke-linecap="round" stroke-linejoin="round"></g><g id="SVGRepo_iconCarrier"><path fill="#b3b3b7" d="M425.5 74.313c-8.895 0-16.35 6.21-18.25 14.53-8.593 3.7-15.195 10.617-19.03 18.813-5.254 11.223-6.848 24.648-7.158 39.313-.525 24.904 2.99 53.73 4.532 79.03-1.782 14.666-4.867 28.518-9.063 41.406 2.84 17.934 3.39 36.487.94 55.188-5.017 38.286-36.52 61.134-70.22 67.937-31.048 6.27-65.312.42-87.656-19.405-34.752 22.61-76.646 28.578-112.406 16.594-42.048 16.248-74.53 38.826-87.626 61.436H341.25c103.105 0 137.952-107.888 111.406-225.53-.018.023-.044.038-.062.06-5.71-40.853.98-70.45 14.906-88.905 1.956.695 4.056 1.095 6.25 1.095 10.333 0 18.688-8.386 18.688-18.72 0-10.332-8.355-18.718-18.688-18.718-10.333 0-18.72 8.386-18.72 18.72 0 1.017.095 1.994.25 2.968-21.242 25.165-28.854 65.708-19.25 117.906-10.296 4.836-21.152 2.878-31.436-6.75-1.286-28.002-5.364-59.27-4.844-83.905.283-13.405 2.07-24.72 5.375-31.78 2.1-4.49 4.222-7.344 7.47-9.032 3.355 3.196 7.904 5.187 12.905 5.187 10.333 0 18.688-8.386 18.688-18.72 0-10.332-8.355-18.718-18.688-18.718zM193.344 106.25c-2.196-.01-4.398.036-6.594.125-35.143 1.42-70.142 15.475-99.063 41.25-56.73 50.558-59.43 144.59-9.187 201.125 38.648 38.3 106.856 34.79 151.5-9.844 37.712-37.61 40.61-94.977 8.78-127-22.1-22.23-60.996-24.817-85.843 1.188-5.534 5.79-8.98 16.02-8.906 26.906.076 10.887 3.653 22.003 9.532 29.063 3.593 4.313 10.625 8.476 18.5 10.468 4.687 1.187 9.596 1.58 14.094 1.25 13.195-.228 26.156-9.01 26.156-26.624 0-15.72-10.332-24.428-21.937-26.28 7.773-.697 14.783.618 20.594 3.81 8.51 4.678 13.69 12.944 15.468 21.533 3.52 16.995-5.478 37.125-25.407 43.343l.032.062c-.162.06-.337.067-.5.125-.046.014-.078.05-.125.063-10.572 3.753-22.202 3.567-32.968.843-10.977-2.776-21.238-8.167-28.282-16.625-9.418-11.306-13.744-26.222-13.844-40.874-.1-14.652 4.01-29.453 14.062-39.97 32.03-33.52 83.263-31 112.625-1.467 39.98 40.22 35.282 109.352-8.843 153.374v.03c-2.627 2.627-5.384 5.056-8.156 7.438 17.017 12.7 44.022 17.605 68.532 12.657 28.256-5.706 51.524-22.667 55.375-52.064 9.492-72.455-34.215-147.342-72.25-179.25-27.663-23.21-60.402-34.506-93.343-34.656z"></path></g>
</symbol>

</defs>
</svg>

